<?xml version="1.0" encoding="UTF-8" standalone="no"?>
<!-- Created with Inkscape (http://www.inkscape.org/) -->

<svg
   xmlns:dc="http://purl.org/dc/elements/1.1/"
   xmlns:cc="http://creativecommons.org/ns#"
   xmlns:rdf="http://www.w3.org/1999/02/22-rdf-syntax-ns#"
   xmlns:svg="http://www.w3.org/2000/svg"
   xmlns="http://www.w3.org/2000/svg"
   xmlns:sodipodi="http://sodipodi.sourceforge.net/DTD/sodipodi-0.dtd"
   xmlns:inkscape="http://www.inkscape.org/namespaces/inkscape"
   width="20.265009mm"
   height="20.265005mm"
   viewBox="0 0 20.265009 20.265005"
   version="1.1"
   id="svg4563"
   inkscape:version="0.92.5 (2060ec1f9f, 2020-04-08)"
   sodipodi:docname="emulsiV-logo.svg">
  <defs
     id="defs4557" />
  <sodipodi:namedview
     id="base"
     pagecolor="#ffffff"
     bordercolor="#666666"
     borderopacity="1.0"
     inkscape:pageopacity="0.0"
     inkscape:pageshadow="2"
     inkscape:zoom="7.9999996"
     inkscape:cx="-15.347691"
     inkscape:cy="31.431284"
     inkscape:document-units="mm"
     inkscape:current-layer="layer3"
     showgrid="false"
     inkscape:snap-grids="false"
     inkscape:snap-smooth-nodes="false"
     inkscape:window-width="1920"
     inkscape:window-height="1021"
     inkscape:window-x="1366"
     inkscape:window-y="27"
     inkscape:window-maximized="1"
     inkscape:snap-to-guides="true"
     fit-margin-top="0"
     fit-margin-left="0"
     fit-margin-right="0"
     fit-margin-bottom="0">
    <inkscape:grid
       type="xygrid"
       id="grid4565"
       units="mm"
       spacingx="1"
       spacingy="1"
       originx="-80.040685"
       originy="-229.81486" />
  </sodipodi:namedview>
  <metadata
     id="metadata4560">
    <rdf:RDF>
      <cc:Work
         rdf:about="">
        <dc:format>image/svg+xml</dc:format>
        <dc:type
           rdf:resource="http://purl.org/dc/dcmitype/StillImage" />
        <dc:title></dc:title>
      </cc:Work>
    </rdf:RDF>
  </metadata>
  <g
     inkscape:label="Calque 1"
     inkscape:groupmode="layer"
     id="layer1"
     transform="translate(-80.040683,-46.920117)"
     style="display:inline">
    <ellipse
       style="opacity:1;fill:#333333;fill-opacity:0.98299321;fill-rule:nonzero;stroke:#333333;stroke-width:0.26499996;stroke-linejoin:round;stroke-miterlimit:4;stroke-dasharray:none;stroke-opacity:0.98431373"
       id="path4567"
       cx="90.173187"
       cy="57.05262"
       rx="10.000005"
       ry="10.000003" />
    <ellipse
       cy="55.446854"
       cx="85.323196"
       id="ellipse1476"
       style="display:inline;opacity:1;fill:#666666;fill-opacity:1;fill-rule:nonzero;stroke:#333333;stroke-width:0.02645833;stroke-linejoin:round;stroke-miterlimit:4;stroke-dasharray:none;stroke-opacity:0.98431373"
       rx="1.1406927"
       ry="1.1490933" />
    <ellipse
       cy="51.948376"
       cx="82.504631"
       id="ellipse1498"
       style="display:inline;opacity:1;fill:#666666;fill-opacity:1;fill-rule:nonzero;stroke:#333333;stroke-width:0.02645833;stroke-linejoin:round;stroke-miterlimit:4;stroke-dasharray:none;stroke-opacity:0.98431373"
       rx="0.76527363"
       ry="0.77090812" />
    <ellipse
       ry="0.82090247"
       rx="0.8149026"
       style="display:inline;opacity:1;fill:#666666;fill-opacity:1;fill-rule:nonzero;stroke:#333333;stroke-width:0.02645833;stroke-linejoin:round;stroke-miterlimit:4;stroke-dasharray:none;stroke-opacity:0.98431373"
       id="ellipse92"
       cx="89.971512"
       cy="52.120625" />
    <ellipse
       ry="4.2009773"
       rx="4.1702728"
       style="display:inline;opacity:1;fill:#666666;fill-opacity:1;fill-rule:nonzero;stroke:#333333;stroke-width:0.02645833;stroke-linejoin:round;stroke-miterlimit:4;stroke-dasharray:none;stroke-opacity:0.98431373"
       id="ellipse131"
       cx="93.638023"
       cy="61.702633" />
    <ellipse
       cy="51.340225"
       cx="86.187782"
       id="ellipse133"
       style="display:inline;opacity:1;fill:#666666;fill-opacity:1;fill-rule:nonzero;stroke:#333333;stroke-width:0.02645833;stroke-linejoin:round;stroke-miterlimit:4;stroke-dasharray:none;stroke-opacity:0.98431373"
       rx="3.0443377"
       ry="3.0667522" />
    <ellipse
       ry="1.7960516"
       rx="1.7829244"
       style="display:inline;opacity:1;fill:#666666;fill-opacity:1;fill-rule:nonzero;stroke:#333333;stroke-width:0.02645833;stroke-linejoin:round;stroke-miterlimit:4;stroke-dasharray:none;stroke-opacity:0.98431373"
       id="ellipse135"
       cx="98.313049"
       cy="58.018349" />
    <ellipse
       cy="49.317692"
       cx="91.039467"
       id="ellipse137"
       style="display:inline;opacity:1;fill:#666666;fill-opacity:1;fill-rule:nonzero;stroke:#333333;stroke-width:0.02645833;stroke-linejoin:round;stroke-miterlimit:4;stroke-dasharray:none;stroke-opacity:0.98431373"
       rx="2.1844418"
       ry="2.2005253" />
    <ellipse
       ry="1.8707095"
       rx="1.8570366"
       style="display:inline;opacity:1;fill:#666666;fill-opacity:1;fill-rule:nonzero;stroke:#333333;stroke-width:0.02645833;stroke-linejoin:round;stroke-miterlimit:4;stroke-dasharray:none;stroke-opacity:0.98431373"
       id="ellipse139"
       cx="82.456772"
       cy="54.558586" />
    <ellipse
       cy="65.369431"
       cx="89.111023"
       id="ellipse141"
       style="display:inline;opacity:1;fill:#666666;fill-opacity:1;fill-rule:nonzero;stroke:#333333;stroke-width:0.02645833;stroke-linejoin:round;stroke-miterlimit:4;stroke-dasharray:none;stroke-opacity:0.98431373"
       rx="1.6088426"
       ry="1.6206883" />
    <ellipse
       ry="0.54783636"
       rx="0.54383224"
       style="display:inline;opacity:1;fill:#666666;fill-opacity:1;fill-rule:nonzero;stroke:#333333;stroke-width:0.02645833;stroke-linejoin:round;stroke-miterlimit:4;stroke-dasharray:none;stroke-opacity:0.98431373"
       id="ellipse147"
       cx="87.479156"
       cy="48.007725" />
    <ellipse
       cy="48.502815"
       cx="88.42086"
       id="ellipse149"
       style="display:inline;opacity:1;fill:#666666;fill-opacity:1;fill-rule:nonzero;stroke:#333333;stroke-width:0.02645833;stroke-linejoin:round;stroke-miterlimit:4;stroke-dasharray:none;stroke-opacity:0.98431373"
       rx="0.52642089"
       ry="0.5302968" />
    <ellipse
       cy="47.588276"
       cx="88.678207"
       id="ellipse151"
       style="display:inline;opacity:1;fill:#666666;fill-opacity:1;fill-rule:nonzero;stroke:#333333;stroke-width:0.02645833;stroke-linejoin:round;stroke-miterlimit:4;stroke-dasharray:none;stroke-opacity:0.98431373"
       rx="0.41685334"
       ry="0.4199225" />
    <ellipse
       cy="47.428753"
       cx="89.428635"
       id="ellipse155"
       style="display:inline;opacity:1;fill:#666666;fill-opacity:1;fill-rule:nonzero;stroke:#333333;stroke-width:0.02645833;stroke-linejoin:round;stroke-miterlimit:4;stroke-dasharray:none;stroke-opacity:0.98431373"
       rx="0.32979649"
       ry="0.3322247" />
    <ellipse
       cy="55.043884"
       cx="87.258728"
       id="ellipse159"
       style="display:inline;opacity:1;fill:#666666;fill-opacity:1;fill-rule:nonzero;stroke:#333333;stroke-width:0.02645833;stroke-linejoin:round;stroke-miterlimit:4;stroke-dasharray:none;stroke-opacity:0.98431373"
       rx="0.8149026"
       ry="0.82090247" />
    <ellipse
       ry="0.50947779"
       rx="0.5057503"
       style="display:inline;opacity:1;fill:#666666;fill-opacity:1;fill-rule:nonzero;stroke:#333333;stroke-width:0.02645833;stroke-linejoin:round;stroke-miterlimit:4;stroke-dasharray:none;stroke-opacity:0.98431373"
       id="ellipse161"
       cx="86.805397"
       cy="56.302368" />
    <ellipse
       cy="57.312336"
       cx="85.99588"
       id="ellipse163"
       style="display:inline;opacity:1;fill:#666666;fill-opacity:1;fill-rule:nonzero;stroke:#333333;stroke-width:0.02645833;stroke-linejoin:round;stroke-miterlimit:4;stroke-dasharray:none;stroke-opacity:0.98431373"
       rx="0.8149026"
       ry="0.82090247" />
    <ellipse
       ry="0.82090247"
       rx="0.8149026"
       style="display:inline;opacity:1;fill:#666666;fill-opacity:1;fill-rule:nonzero;stroke:#333333;stroke-width:0.02645833;stroke-linejoin:round;stroke-miterlimit:4;stroke-dasharray:none;stroke-opacity:0.98431373"
       id="ellipse165"
       cx="84.405624"
       cy="57.195404" />
    <ellipse
       ry="1.0112795"
       rx="1.0039338"
       style="display:inline;opacity:1;fill:#666666;fill-opacity:1;fill-rule:nonzero;stroke:#333333;stroke-width:0.02645834;stroke-linejoin:round;stroke-miterlimit:4;stroke-dasharray:none;stroke-opacity:0.98431373"
       id="ellipse169"
       cx="88.947243"
       cy="54.369991" />
    <ellipse
       ry="0.3322247"
       rx="0.32979649"
       style="display:inline;opacity:1;fill:#666666;fill-opacity:1;fill-rule:nonzero;stroke:#333333;stroke-width:0.02645833;stroke-linejoin:round;stroke-miterlimit:4;stroke-dasharray:none;stroke-opacity:0.98431373"
       id="ellipse171"
       cx="86.584366"
       cy="48.09021" />
    <ellipse
       cy="58.36956"
       cx="85.148109"
       id="ellipse173"
       style="display:inline;opacity:1;fill:#666666;fill-opacity:1;fill-rule:nonzero;stroke:#333333;stroke-width:0.02645833;stroke-linejoin:round;stroke-miterlimit:4;stroke-dasharray:none;stroke-opacity:0.98431373"
       rx="0.54396045"
       ry="0.54795277" />
    <ellipse
       ry="1.1724794"
       rx="1.1639098"
       style="display:inline;opacity:1;fill:#666666;fill-opacity:1;fill-rule:nonzero;stroke:#333333;stroke-width:0.02645833;stroke-linejoin:round;stroke-miterlimit:4;stroke-dasharray:none;stroke-opacity:0.98431373"
       id="ellipse175"
       cx="83.557381"
       cy="58.989849" />
    <ellipse
       ry="0.57152379"
       rx="0.56734651"
       style="display:inline;opacity:1;fill:#666666;fill-opacity:1;fill-rule:nonzero;stroke:#333333;stroke-width:0.02645833;stroke-linejoin:round;stroke-miterlimit:4;stroke-dasharray:none;stroke-opacity:0.98431373"
       id="ellipse177"
       cx="83.055061"
       cy="56.907425" />
    <ellipse
       ry="1.201241"
       rx="1.1924614"
       style="display:inline;opacity:1;fill:#666666;fill-opacity:1;fill-rule:nonzero;stroke:#333333;stroke-width:0.02645833;stroke-linejoin:round;stroke-miterlimit:4;stroke-dasharray:none;stroke-opacity:0.98431373"
       id="ellipse181"
       cx="81.368912"
       cy="57.413216" />
    <ellipse
       cy="59.24614"
       cx="81.119026"
       id="ellipse187"
       style="display:inline;opacity:1;fill:#666666;fill-opacity:1;fill-rule:nonzero;stroke:#333333;stroke-width:0.02645833;stroke-linejoin:round;stroke-miterlimit:4;stroke-dasharray:none;stroke-opacity:0.98431373"
       rx="0.64492106"
       ry="0.66759896" />
    <ellipse
       ry="0.62753683"
       rx="0.6229502"
       style="display:inline;opacity:1;fill:#666666;fill-opacity:1;fill-rule:nonzero;stroke:#333333;stroke-width:0.02645833;stroke-linejoin:round;stroke-miterlimit:4;stroke-dasharray:none;stroke-opacity:0.98431373"
       id="ellipse189"
       cx="85.020493"
       cy="60.031395" />
    <ellipse
       cy="59.598137"
       cx="88.600067"
       id="ellipse191"
       style="display:inline;opacity:1;fill:#666666;fill-opacity:1;fill-rule:nonzero;stroke:#333333;stroke-width:0.02645833;stroke-linejoin:round;stroke-miterlimit:4;stroke-dasharray:none;stroke-opacity:0.98431373"
       rx="1.4353569"
       ry="1.445925" />
    <ellipse
       cy="59.455353"
       cx="86.353226"
       id="ellipse193"
       style="display:inline;opacity:1;fill:#666666;fill-opacity:1;fill-rule:nonzero;stroke:#333333;stroke-width:0.02645834;stroke-linejoin:round;stroke-miterlimit:4;stroke-dasharray:none;stroke-opacity:0.98431373"
       rx="0.83964127"
       ry="0.84583509" />
    <ellipse
       ry="0.89410174"
       rx="0.88756323"
       style="display:inline;opacity:1;fill:#666666;fill-opacity:1;fill-rule:nonzero;stroke:#333333;stroke-width:0.02645833;stroke-linejoin:round;stroke-miterlimit:4;stroke-dasharray:none;stroke-opacity:0.98431373"
       id="ellipse195"
       cx="87.676582"
       cy="57.419029" />
    <ellipse
       cy="56.001179"
       cx="88.405479"
       id="ellipse197"
       style="display:inline;opacity:1;fill:#666666;fill-opacity:1;fill-rule:nonzero;stroke:#333333;stroke-width:0.02645833;stroke-linejoin:round;stroke-miterlimit:4;stroke-dasharray:none;stroke-opacity:0.98431373"
       rx="0.67757583"
       ry="0.68256462" />
    <ellipse
       ry="1.5048207"
       rx="1.4938221"
       style="display:inline;opacity:1;fill:#666666;fill-opacity:1;fill-rule:nonzero;stroke:#333333;stroke-width:0.02645833;stroke-linejoin:round;stroke-miterlimit:4;stroke-dasharray:none;stroke-opacity:0.98431373"
       id="ellipse201"
       cx="90.260475"
       cy="57.153862" />
    <ellipse
       cy="53.675213"
       cx="90.719948"
       id="ellipse568"
       style="display:inline;opacity:1;fill:#666666;fill-opacity:1;fill-rule:nonzero;stroke:#333333;stroke-width:0.02645833;stroke-linejoin:round;stroke-miterlimit:4;stroke-dasharray:none;stroke-opacity:0.98431373"
       rx="0.90105689"
       ry="0.91413623" />
    <ellipse
       ry="0.66179985"
       rx="0.65695691"
       style="display:inline;opacity:1;fill:#666666;fill-opacity:1;fill-rule:nonzero;stroke:#333333;stroke-width:0.02645832;stroke-linejoin:round;stroke-miterlimit:4;stroke-dasharray:none;stroke-opacity:0.98431373"
       id="ellipse570"
       cx="91.443314"
       cy="52.235695" />
    <ellipse
       cy="52.658958"
       cx="92.670151"
       id="ellipse574"
       style="display:inline;opacity:1;fill:#666666;fill-opacity:1;fill-rule:nonzero;stroke:#333333;stroke-width:0.02645833;stroke-linejoin:round;stroke-miterlimit:4;stroke-dasharray:none;stroke-opacity:0.98431373"
       rx="0.63077092"
       ry="0.63541508" />
    <ellipse
       ry="1.2283289"
       rx="1.210754"
       style="display:inline;opacity:1;fill:#666666;fill-opacity:1;fill-rule:nonzero;stroke:#333333;stroke-width:0.02645833;stroke-linejoin:round;stroke-miterlimit:4;stroke-dasharray:none;stroke-opacity:0.98431373"
       id="ellipse576"
       cx="92.617134"
       cy="54.535107" />
    <ellipse
       cy="60.697552"
       cx="82.084053"
       id="ellipse578"
       style="display:inline;opacity:1;fill:#666666;fill-opacity:1;fill-rule:nonzero;stroke:#333333;stroke-width:0.02645833;stroke-linejoin:round;stroke-miterlimit:4;stroke-dasharray:none;stroke-opacity:0.98431373"
       rx="1.0937515"
       ry="1.1018046" />
    <ellipse
       ry="0.55510145"
       rx="0.55103713"
       style="display:inline;opacity:1;fill:#666666;fill-opacity:1;fill-rule:nonzero;stroke:#333333;stroke-width:0.02645833;stroke-linejoin:round;stroke-miterlimit:4;stroke-dasharray:none;stroke-opacity:0.98431373"
       id="ellipse584"
       cx="90.30838"
       cy="55.084892" />
    <ellipse
       cy="62.437931"
       cx="86.423058"
       id="ellipse594"
       style="display:inline;opacity:1;fill:#666666;fill-opacity:1;fill-rule:nonzero;stroke:#333333;stroke-width:0.02645833;stroke-linejoin:round;stroke-miterlimit:4;stroke-dasharray:none;stroke-opacity:0.98431373"
       rx="2.1408441"
       ry="2.1566062" />
    <ellipse
       ry="0.5302968"
       rx="0.52642089"
       style="display:inline;opacity:1;fill:#666666;fill-opacity:1;fill-rule:nonzero;stroke:#333333;stroke-width:0.02645833;stroke-linejoin:round;stroke-miterlimit:4;stroke-dasharray:none;stroke-opacity:0.98431373"
       id="ellipse596"
       cx="88.942505"
       cy="61.531723" />
    <ellipse
       ry="0.6257937"
       rx="0.62868184"
       style="display:inline;opacity:1;fill:#666666;fill-opacity:1;fill-rule:nonzero;stroke:#333333;stroke-width:0.02645833;stroke-linejoin:round;stroke-miterlimit:4;stroke-dasharray:none;stroke-opacity:0.98431373"
       id="ellipse600"
       cx="89.060127"
       cy="63.150612" />
    <ellipse
       ry="0.78523624"
       rx="0.75856227"
       style="display:inline;opacity:1;fill:#666666;fill-opacity:1;fill-rule:nonzero;stroke:#333333;stroke-width:0.02645833;stroke-linejoin:round;stroke-miterlimit:4;stroke-dasharray:none;stroke-opacity:0.98431373"
       id="ellipse604"
       cx="83.933769"
       cy="60.894142" />
    <ellipse
       cy="62.585674"
       cx="83.197464"
       id="ellipse608"
       style="display:inline;opacity:1;fill:#666666;fill-opacity:1;fill-rule:nonzero;stroke:#333333;stroke-width:0.02645833;stroke-linejoin:round;stroke-miterlimit:4;stroke-dasharray:none;stroke-opacity:0.98431373"
       rx="1.0640482"
       ry="1.1014642" />
    <ellipse
       cy="50.853497"
       cx="82.814964"
       id="ellipse616"
       style="display:inline;opacity:1;fill:#666666;fill-opacity:1;fill-rule:nonzero;stroke:#333333;stroke-width:0.02645833;stroke-linejoin:round;stroke-miterlimit:4;stroke-dasharray:none;stroke-opacity:0.98431373"
       rx="0.35864463"
       ry="0.36128524" />
    <ellipse
       cy="53.168823"
       cx="91.843964"
       id="ellipse618"
       style="display:inline;opacity:1;fill:#666666;fill-opacity:1;fill-rule:nonzero;stroke:#333333;stroke-width:0.02645833;stroke-linejoin:round;stroke-miterlimit:4;stroke-dasharray:none;stroke-opacity:0.98431373"
       rx="0.34219885"
       ry="0.34471837" />
    <ellipse
       ry="1.3397974"
       rx="1.3300052"
       style="display:inline;opacity:1;fill:#666666;fill-opacity:1;fill-rule:nonzero;stroke:#333333;stroke-width:0.02645833;stroke-linejoin:round;stroke-miterlimit:4;stroke-dasharray:none;stroke-opacity:0.98431373"
       id="ellipse620"
       cx="94.01432"
       cy="51.210438" />
    <ellipse
       ry="0.84212083"
       rx="0.83596587"
       style="display:inline;opacity:1;fill:#666666;fill-opacity:1;fill-rule:nonzero;stroke:#333333;stroke-width:0.02645833;stroke-linejoin:round;stroke-miterlimit:4;stroke-dasharray:none;stroke-opacity:0.98431373"
       id="ellipse622"
       cx="94.280937"
       cy="53.361755" />
    <ellipse
       cy="56.685585"
       cx="92.593498"
       id="ellipse624"
       style="display:inline;opacity:1;fill:#666666;fill-opacity:1;fill-rule:nonzero;stroke:#333333;stroke-width:0.02645833;stroke-linejoin:round;stroke-miterlimit:4;stroke-dasharray:none;stroke-opacity:0.98431373"
       rx="0.93445945"
       ry="0.94133961" />
    <ellipse
       ry="1.8740777"
       rx="1.8603802"
       style="display:inline;opacity:1;fill:#666666;fill-opacity:1;fill-rule:nonzero;stroke:#333333;stroke-width:0.02645833;stroke-linejoin:round;stroke-miterlimit:4;stroke-dasharray:none;stroke-opacity:0.98431373"
       id="ellipse626"
       cx="95.354965"
       cy="55.881992" />
    <ellipse
       cy="64.095596"
       cx="84.113251"
       id="ellipse628"
       style="display:inline;opacity:1;fill:#666666;fill-opacity:1;fill-rule:nonzero;stroke:#333333;stroke-width:0.02645833;stroke-linejoin:round;stroke-miterlimit:4;stroke-dasharray:none;stroke-opacity:0.98431373"
       rx="0.68581873"
       ry="0.68266815" />
    <ellipse
       ry="0.64132702"
       rx="0.64428681"
       style="display:inline;opacity:1;fill:#666666;fill-opacity:1;fill-rule:nonzero;stroke:#333333;stroke-width:0.02645833;stroke-linejoin:round;stroke-miterlimit:4;stroke-dasharray:none;stroke-opacity:0.98431373"
       id="ellipse630"
       cx="85.163124"
       cy="64.914154" />
    <ellipse
       ry="0.88863969"
       rx="0.88214457"
       style="display:inline;opacity:1;fill:#666666;fill-opacity:1;fill-rule:nonzero;stroke:#333333;stroke-width:0.02645833;stroke-linejoin:round;stroke-miterlimit:4;stroke-dasharray:none;stroke-opacity:0.98431373"
       id="ellipse634"
       cx="86.595993"
       cy="65.450294" />
    <ellipse
       cy="66.118019"
       cx="91.422447"
       id="ellipse640"
       style="display:inline;opacity:1;fill:#666666;fill-opacity:1;fill-rule:nonzero;stroke:#333333;stroke-width:0.02645833;stroke-linejoin:round;stroke-miterlimit:4;stroke-dasharray:none;stroke-opacity:0.98431373"
       rx="0.82774937"
       ry="0.82394671" />
    <ellipse
       ry="0.87419415"
       rx="0.87822872"
       style="display:inline;opacity:1;fill:#666666;fill-opacity:1;fill-rule:nonzero;stroke:#333333;stroke-width:0.02645833;stroke-linejoin:round;stroke-miterlimit:4;stroke-dasharray:none;stroke-opacity:0.98431373"
       id="ellipse642"
       cx="98.539673"
       cy="60.678307" />
    <ellipse
       cy="61.993469"
       cx="98.287262"
       id="ellipse644"
       style="display:inline;opacity:1;fill:#666666;fill-opacity:1;fill-rule:nonzero;stroke:#333333;stroke-width:0.02645833;stroke-linejoin:round;stroke-miterlimit:4;stroke-dasharray:none;stroke-opacity:0.98431373"
       rx="0.48507977"
       ry="0.48865128" />
    <ellipse
       cy="54.805256"
       cx="98.418633"
       id="ellipse646"
       style="display:inline;opacity:1;fill:#666666;fill-opacity:1;fill-rule:nonzero;stroke:#333333;stroke-width:0.02645833;stroke-linejoin:round;stroke-miterlimit:4;stroke-dasharray:none;stroke-opacity:0.98431373"
       rx="1.3973958"
       ry="1.4076846" />
    <ellipse
       ry="1.5012288"
       rx="1.4902564"
       style="display:inline;opacity:1;fill:#666666;fill-opacity:1;fill-rule:nonzero;stroke:#333333;stroke-width:0.02645833;stroke-linejoin:round;stroke-miterlimit:4;stroke-dasharray:none;stroke-opacity:0.98431373"
       id="ellipse648"
       cx="96.453514"
       cy="52.700508" />
    <ellipse
       ry="0.61822176"
       rx="0.61370325"
       style="display:inline;opacity:1;fill:#666666;fill-opacity:1;fill-rule:nonzero;stroke:#333333;stroke-width:0.02645833;stroke-linejoin:round;stroke-miterlimit:4;stroke-dasharray:none;stroke-opacity:0.98431373"
       id="ellipse650"
       cx="98.50943"
       cy="52.7901" />
    <ellipse
       cy="49.761806"
       cx="95.682343"
       id="ellipse652"
       style="display:inline;opacity:1;fill:#666666;fill-opacity:1;fill-rule:nonzero;stroke:#333333;stroke-width:0.02645833;stroke-linejoin:round;stroke-miterlimit:4;stroke-dasharray:none;stroke-opacity:0.98431373"
       rx="0.86308825"
       ry="0.86944294" />
    <ellipse
       ry="0.95279485"
       rx="0.945831"
       style="display:inline;opacity:1;fill:#666666;fill-opacity:1;fill-rule:nonzero;stroke:#333333;stroke-width:0.02645833;stroke-linejoin:round;stroke-miterlimit:4;stroke-dasharray:none;stroke-opacity:0.98431373"
       id="ellipse654"
       cx="94.11132"
       cy="48.950855" />
    <ellipse
       cy="50.578259"
       cx="97.021141"
       id="ellipse656"
       style="display:inline;opacity:1;fill:#666666;fill-opacity:1;fill-rule:nonzero;stroke:#333333;stroke-width:0.02645833;stroke-linejoin:round;stroke-miterlimit:4;stroke-dasharray:none;stroke-opacity:0.98431373"
       rx="0.66331255"
       ry="0.68859601" />
    <ellipse
       ry="0.35527179"
       rx="0.35263208"
       style="display:inline;opacity:1;fill:#666666;fill-opacity:1;fill-rule:nonzero;stroke:#333333;stroke-width:0.02645833;stroke-linejoin:round;stroke-miterlimit:4;stroke-dasharray:none;stroke-opacity:0.98431373"
       id="ellipse1621"
       cx="95.693481"
       cy="51.002529" />
    <ellipse
       ry="0.39009669"
       rx="0.38722739"
       style="display:inline;opacity:1;fill:#666666;fill-opacity:1;fill-rule:nonzero;stroke:#333333;stroke-width:0.02645833;stroke-linejoin:round;stroke-miterlimit:4;stroke-dasharray:none;stroke-opacity:0.98431373"
       id="ellipse138"
       cx="86.733635"
       cy="58.281857" />
    <ellipse
       cy="55.452976"
       cx="91.231224"
       id="ellipse198"
       style="display:inline;opacity:1;fill:#666666;fill-opacity:1;fill-rule:nonzero;stroke:#333333;stroke-width:0.02645833;stroke-linejoin:round;stroke-miterlimit:4;stroke-dasharray:none;stroke-opacity:0.98431373"
       rx="0.4403621"
       ry="0.44362924" />
  </g>
  <g
     inkscape:groupmode="layer"
     id="layer2"
     inkscape:label="Calque 2"
     transform="translate(-80.040683,-46.920117)"
     style="display:inline">
    <path
       style="display:inline;fill:#cccccc;fill-opacity:0.39115648;fill-rule:evenodd;stroke:none;stroke-width:0.26458335px;stroke-linecap:butt;stroke-linejoin:miter;stroke-opacity:1"
       d="m 96.215741,50.596357 c 0.275237,0.561183 0.339932,1.638831 -0.09673,2.188008 -0.328642,0.41332 -1.194168,1.219384 -1.325962,1.379908 -0.652394,0.794622 -0.783567,1.219632 -1.219388,2.082811 0.821224,-2.622674 1.453859,-2.420252 1.911025,-3.510219 0.29076,-0.769373 0.512188,-1.811987 -1.112692,-2.391834 -1.032966,-0.368617 -0.294439,-1.423748 0.548024,-1.00718 0.550651,0.272278 0.977712,0.610096 1.295727,1.258506 z"
       id="path4619"
       inkscape:connector-curvature="0"
       sodipodi:nodetypes="sssccsss"
       transform="translate(2.2916667e-7,1.0416667e-6)" />
    <path
       transform="translate(2.2916667e-7,1.0416667e-6)"
       inkscape:connector-curvature="0"
       id="path4617"
       d="m 91.944854,52.448526 c 0.346626,0.321819 0.544438,0.590847 0.790146,1.026083 0.445439,0.789032 0.540537,1.328677 0.74207,2.415265 0,0 -0.386751,-1.432797 -0.916382,-2.068068 -0.425123,-0.509918 -0.883425,-1.006703 -1.512603,-1.057296 -0.594754,-0.04782 -0.852381,-0.161462 -0.840805,-0.479181 0.01154,-0.317719 0.177595,-0.498524 0.545776,-0.442688 0.368181,0.05584 0.866835,0.310615 1.191798,0.605885 z"
       style="display:inline;fill:#cccccc;fill-opacity:0.39115648;fill-rule:evenodd;stroke:none;stroke-width:0.26458329px;stroke-linecap:butt;stroke-linejoin:miter;stroke-opacity:1"
       sodipodi:nodetypes="cscsszzc" />
    <g
       id="g129"
       transform="rotate(-29.180089,89.452643,60.056568)">
      <path
         transform="translate(2.2916667e-7,1.0416667e-6)"
         inkscape:connector-curvature="0"
         id="path4611"
         d="m 88.670325,54.636939 c -1.380488,-0.0076 -2.793935,0.552084 -3.66363,1.649993 -1.159459,1.432943 -1.376941,3.440707 -0.925999,5.186044 0.327513,1.286387 1.019652,2.478331 1.980132,3.395276 -0.96397,-1.527554 -1.501737,-3.337484 -1.486415,-5.146254 0.01727,-1.203005 0.396012,-2.516535 1.417998,-3.246803 0.449366,-0.360947 1.050128,-0.502759 1.61116,-0.361518 0.452052,0.0878 0.933926,0.330901 1.383991,0.09724 0.543605,-0.209552 0.79742,-1.061901 0.266192,-1.422358 -0.170268,-0.116012 -0.380808,-0.153879 -0.583429,-0.15162 z"
         style="display:inline;fill:#cccccc;fill-opacity:0.39115648;fill-rule:evenodd;stroke:none;stroke-width:0.26458329px;stroke-linecap:butt;stroke-linejoin:miter;stroke-opacity:1" />
      <path
         inkscape:connector-curvature="0"
         id="path4613"
         d="m 87.276904,59.832946 c 1.123208,0.494938 2.474594,0.543211 3.576252,-0.03684 0.98612,-0.505502 1.791305,-1.494343 1.850338,-2.629974 0.04707,-0.738432 -0.351549,-1.461891 -0.969407,-1.857658 -0.751435,-0.499389 -1.675856,-0.643684 -2.560961,-0.671534 0.956392,0.06853 1.975839,0.3363 2.640661,1.071205 0.437406,0.468942 0.610082,1.220071 0.269774,1.791233 -0.294989,0.528909 -0.895408,0.771418 -1.46342,0.875488 -0.68503,0.159047 -1.398012,0.122474 -2.082606,-0.01898 -0.481493,-0.09478 -1.067398,-0.112633 -1.426665,0.281132 -0.332736,0.338945 -0.314531,0.997055 0.166028,1.195914 z"
         style="display:inline;fill:#cccccc;fill-opacity:0.39115648;fill-rule:evenodd;stroke:none;stroke-width:0.26458329px;stroke-linecap:butt;stroke-linejoin:miter;stroke-opacity:1"
         transform="translate(2.2916667e-7,1.0416667e-6)" />
    </g>
  </g>
  <g
     inkscape:groupmode="layer"
     id="layer3"
     inkscape:label="Calque 3"
     style="display:inline"
     transform="translate(-80.040683,-46.920117)">
    <path
       style="opacity:1;fill:#55dcfd;fill-opacity:1;fill-rule:nonzero;stroke:#55dcfd;stroke-width:0.1;stroke-linejoin:round;stroke-miterlimit:4;stroke-dasharray:none;stroke-opacity:1"
       d="m 51.969887,10.846363 -0.187825,-0.04206 v -0.23653 c 0,-0.8854145 0.755315,-1.7253486 1.789864,-1.9903861 0.301956,-0.077357 0.954031,-0.090541 1.281631,-0.025913 0.258245,0.050946 0.65544,0.1846841 0.855023,0.2878924 l 0.140211,0.072506 -0.07227,0.1422726 c -0.13279,0.2613981 -0.445775,0.6702855 -0.6856,0.8956749 -0.459298,0.4316512 -0.958994,0.7051592 -1.577176,0.8632632 -0.363228,0.0929 -1.197347,0.11088 -1.543854,0.03328 z"
       id="path1541"
       inkscape:connector-curvature="0"
       transform="matrix(0.26458333,0,0,0.26458333,80.173182,46.999997)" />
    <path
       style="opacity:1;fill:#ffcc00;fill-opacity:0.98431373;fill-rule:nonzero;stroke:#ffcc00;stroke-width:0.1;stroke-linejoin:round;stroke-miterlimit:4;stroke-dasharray:none;stroke-opacity:0.98431373"
       d="m 58.3228,13.655853 c -0.512542,-0.08793 -0.678846,-0.13056 -0.937854,-0.240441 -0.163372,-0.06931 -0.412178,-0.204204 -0.552903,-0.299769 -0.318224,-0.216101 -0.78212,-0.7079 -0.976197,-1.034912 -0.480927,-0.810345 -0.591705,-2.047624 -0.230354,-2.5728294 0.07883,-0.1145764 0.187531,-0.2861413 0.241557,-0.3812554 l 0.09823,-0.1729346 0.541541,0.3102559 c 1.513044,0.8668435 2.522207,1.7835305 3.391248,3.0804855 0.350455,0.523019 0.470779,0.750371 0.431102,0.814568 -0.0464,0.07507 -0.6286,0.330886 -0.923611,0.405828 -0.280013,0.07113 -0.896536,0.122949 -1.082757,0.091 z"
       id="path1543"
       inkscape:connector-curvature="0"
       transform="matrix(0.26458333,0,0,0.26458333,80.173182,46.999997)" />
    <path
       style="opacity:1;fill:#cbfd02;fill-opacity:1;fill-rule:nonzero;stroke:#cbfd02;stroke-width:0.1;stroke-linejoin:round;stroke-miterlimit:4;stroke-dasharray:none;stroke-opacity:1"
       d="m 56.847623,14.361639 c -0.561486,-0.510329 -1.885515,-1.252646 -2.904928,-1.628647 -1.066099,-0.393221 -1.702443,-0.843964 -1.982391,-1.404189 -0.176859,-0.353927 -0.175431,-0.407956 0.0096,-0.362401 0.079,0.01945 0.441942,0.03901 0.806544,0.04346 0.613687,0.0075 0.693178,0.01831 1.070494,0.145687 1.461948,0.493526 2.543494,1.531881 3.10804,2.983924 0.07417,0.190774 0.128883,0.362905 0.12158,0.382513 -0.0073,0.01961 -0.110318,-0.05255 -0.228922,-0.160346 z"
       id="path1545"
       inkscape:connector-curvature="0"
       transform="matrix(0.26458333,0,0,0.26458333,80.173182,46.999997)" />
    <path
       style="opacity:1;fill:#cbfd02;fill-opacity:1;fill-rule:nonzero;stroke:#cbfd02;stroke-width:0.1;stroke-linejoin:round;stroke-miterlimit:4;stroke-dasharray:none;stroke-opacity:1"
       d="m 56.942738,24.727558 c -0.319518,-0.481548 -0.419056,-0.691343 -0.36388,-0.766946 1.063488,-1.4572 1.767636,-3.159022 2.012826,-4.864702 0.06901,-0.480053 0.05501,-1.449537 -0.02709,-1.876333 -0.08463,-0.439966 -0.119253,-0.389687 0.47557,-0.690643 0.628624,-0.318058 1.270065,-0.50535 1.960729,-0.572505 l 0.313709,-0.0305 0.02964,0.214973 c 0.20212,1.465758 0.07311,3.143385 -0.329541,4.285325 -0.366097,1.038268 -0.790033,1.592006 -2.716966,3.548858 l -1.107815,1.125016 z"
       id="path1547"
       inkscape:connector-curvature="0"
       transform="matrix(0.26458333,0,0,0.26458333,80.173182,46.999997)" />
    <path
       style="opacity:1;fill:#55dcfd;fill-opacity:1;fill-rule:nonzero;stroke:#55dcfd;stroke-width:0.1;stroke-linejoin:round;stroke-miterlimit:4;stroke-dasharray:none;stroke-opacity:1"
       d="m 54.203989,26.956731 c 0.188787,-0.352752 2.181495,-2.801001 2.210064,-2.715294 0.04305,0.129163 -0.145345,0.810532 -0.330788,1.196338 -0.173788,0.361556 -0.25782,0.475244 -0.605271,0.81888 -0.397281,0.392918 -0.826584,0.664069 -1.192671,0.753298 -0.114117,0.02782 -0.121958,0.02268 -0.08133,-0.05322 z"
       id="path1549"
       inkscape:connector-curvature="0"
       transform="matrix(0.26458333,0,0,0.26458333,80.173182,46.999997)" />
    <path
       style="opacity:1;fill:#fd9855;fill-opacity:1;fill-rule:nonzero;stroke:#fd9855;stroke-width:0.1;stroke-linejoin:round;stroke-miterlimit:4;stroke-dasharray:none;stroke-opacity:1"
       d="m 50.812475,34.514921 c -0.0033,-0.06053 0.398503,-1.246608 0.695763,-2.053708 0.632072,-1.716155 1.381833,-3.352377 2.058546,-4.492412 l 0.285118,-0.480328 0.522925,-0.247315 c 0.526036,-0.248786 0.974915,-0.415949 1.013452,-0.377412 0.01142,0.01142 -0.102527,0.167573 -0.253217,0.347008 -0.387821,0.461802 -1.069337,1.382718 -1.487822,2.010459 -0.581564,0.872365 -0.98976,1.616741 -1.936136,3.530698 -0.492769,0.996578 -0.897152,1.789933 -0.898629,1.76301 z"
       id="path1551"
       inkscape:connector-curvature="0"
       transform="matrix(0.26458333,0,0,0.26458333,80.173182,46.999997)" />
    <path
       style="opacity:1;fill:#ffcc00;fill-opacity:0.98431373;fill-rule:nonzero;stroke:#ffcc00;stroke-width:0.1;stroke-linejoin:round;stroke-miterlimit:4;stroke-dasharray:none;stroke-opacity:0.98431373"
       d="m 39.039441,21.425811 c -0.351484,-0.127345 -0.600624,-0.278263 -0.785764,-0.475982 -0.131352,-0.140275 -0.210831,-0.280216 -0.270621,-0.47649 -0.04012,-0.131686 -0.04288,-0.159498 -0.0435,-0.4375 -7.68e-4,-0.342069 0.02338,-0.512224 0.109766,-0.773438 0.181684,-0.549379 0.540842,-0.863581 1.099499,-0.961875 0.135632,-0.02386 0.551439,-0.03213 0.669163,-0.01331 l 0.06219,0.0099 0.04944,0.169193 c 0.08377,0.286659 0.110319,0.46271 0.120035,0.796046 0.0069,0.238004 0.0032,0.345724 -0.01719,0.492188 -0.0861,0.619176 -0.330499,1.157034 -0.740172,1.628906 -0.04663,0.05371 -0.0892,0.0973 -0.0946,0.09688 -0.0054,-4.29e-4 -0.07661,-0.02498 -0.158248,-0.05456 z"
       id="path1557"
       inkscape:connector-curvature="0"
       transform="matrix(0.26458333,0,0,0.26458333,80.173182,46.999997)" />
    <path
       style="opacity:1;fill:#fd9855;fill-opacity:1;fill-rule:nonzero;stroke:#fd9855;stroke-width:0.1;stroke-linejoin:round;stroke-miterlimit:4;stroke-dasharray:none;stroke-opacity:1"
       d="M 42.555066,22.129114 C 42.185633,21.978434 41.78302,21.870138 41.391004,21.816 41.1691,21.78536 41.146989,21.77336 40.932044,21.567089 c -0.392913,-0.377064 -0.631183,-0.819738 -0.731686,-1.359375 -0.01819,-0.09768 -0.0263,-0.226516 -0.02656,-0.421875 -4.3e-4,-0.323708 0.03029,-0.518418 0.125052,-0.792621 0.05489,-0.158838 0.184017,-0.432611 0.24332,-0.515893 0.03574,-0.0502 0.02346,-0.0517 0.309775,0.03781 0.832791,0.260347 1.732906,0.700278 2.5625,1.252422 0.453261,0.301671 0.818089,0.591021 1.240139,0.98357 l 0.122951,0.114357 -0.03987,0.07867 c -0.06357,0.125457 -0.217832,0.347451 -0.32933,0.473942 -0.345489,0.391946 -0.837646,0.674095 -1.345457,0.77134 -0.248364,0.04756 -0.241224,0.04841 -0.507813,-0.06032 z"
       id="path1559"
       inkscape:connector-curvature="0"
       transform="matrix(0.26458333,0,0,0.26458333,80.173182,46.999997)" />
    <path
       style="opacity:1;fill:#cbfd02;fill-opacity:1;fill-rule:nonzero;stroke:#cbfd02;stroke-width:0.1;stroke-linejoin:round;stroke-miterlimit:4;stroke-dasharray:none;stroke-opacity:1"
       d="M 45.109559,23.88653 C 45.008726,23.782181 44.624188,23.436548 44.430066,23.275785 44.078689,22.984788 43.705534,22.720277 43.385257,22.53517 l -0.161053,-0.09308 0.08913,-0.08139 c 0.109426,-0.09992 0.325107,-0.213506 0.487452,-0.256703 0.169131,-0.045 0.448797,-0.045 0.617927,0 0.358054,0.09527 0.689332,0.38039 0.828542,0.713096 0.131771,0.314929 0.135126,0.667714 0.0092,0.970352 -0.07251,0.174301 -0.07356,0.175011 -0.146927,0.09909 z"
       id="path1561"
       inkscape:connector-curvature="0"
       transform="matrix(0.26458333,0,0,0.26458333,80.173182,46.999997)" />
    <path
       style="opacity:1;fill:#55dcfd;fill-opacity:1;fill-rule:nonzero;stroke:#55dcfd;stroke-width:0.1;stroke-linejoin:round;stroke-miterlimit:4;stroke-dasharray:none;stroke-opacity:1"
       d="m 46.945691,23.720631 c -0.404519,-0.06488 -0.709095,-0.181707 -1.024175,-0.392855 -0.247856,-0.166098 -0.50361,-0.42941 -0.61744,-0.635687 -0.02845,-0.05156 -0.07736,-0.132422 -0.108682,-0.179688 -0.191055,-0.288315 -0.314962,-0.820961 -0.289974,-1.246524 0.01594,-0.271392 0.0069,-0.268166 0.197287,-0.0708 0.74499,0.772502 1.325124,1.530252 1.926667,2.51654 0.01223,0.02005 -0.004,0.0218 -0.08368,0.009 z"
       id="path1563"
       inkscape:connector-curvature="0"
       transform="matrix(0.26458333,0,0,0.26458333,80.173182,46.999997)" />
    <path
       style="opacity:1;fill:#ffcc00;fill-opacity:0.98431373;fill-rule:nonzero;stroke:#ffcc00;stroke-width:0.1;stroke-linejoin:round;stroke-miterlimit:4;stroke-dasharray:none;stroke-opacity:0.98431373"
       d="M 49.690393,31.678681 C 48.862215,29.225246 47.925194,27.235872 47.04726,26.067089 46.79082,25.725694 46.15476,24.98392 45.679025,24.471453 l -0.262842,-0.283136 0.190536,-0.06405 c 0.364234,-0.12245 0.700595,-0.190829 1.088972,-0.221381 0.12461,-0.0098 0.275154,-0.01554 0.334543,-0.01275 l 0.107979,0.0051 0.09312,0.15625 c 0.324152,0.543917 0.846669,1.541935 1.088013,2.078125 0.453788,1.008174 0.812571,2.068331 1.110452,3.28125 0.210304,0.856317 0.554682,2.53291 0.52727,2.566997 -0.0089,0.01107 -0.04152,0.04019 -0.07249,0.06472 l -0.05631,0.0446 z"
       id="path1565"
       inkscape:connector-curvature="0"
       transform="matrix(0.26458333,0,0,0.26458333,80.173182,46.999997)" />
    <path
       style="opacity:1;fill:#fd9855;fill-opacity:1;fill-rule:nonzero;stroke:#fd9855;stroke-width:0.1;stroke-linejoin:round;stroke-miterlimit:4;stroke-dasharray:none;stroke-opacity:1"
       d="m 58.406444,16.395101 c -0.06304,-0.01155 -0.101628,-0.0655 -0.199856,-0.279403 -0.156159,-0.340061 -0.371425,-0.686342 -0.610515,-0.982085 -0.214263,-0.265033 -0.216773,-0.2866 -0.06885,-0.591779 0.115845,-0.239009 0.336568,-0.453808 0.589374,-0.573556 0.196497,-0.09308 0.235329,-0.10029 0.539852,-0.10029 0.304181,0 0.343496,0.0073 0.538773,0.09979 0.654415,0.31 0.920988,1.083816 0.599526,1.740325 -0.119242,0.243524 -0.419311,0.522378 -0.659642,0.613005 -0.177121,0.06679 -0.557287,0.105397 -0.728657,0.074 z"
       id="path1623"
       inkscape:connector-curvature="0"
       transform="matrix(0.26458333,0,0,0.26458333,80.173182,46.999997)" />
    <path
       style="opacity:1;fill:#cbfd02;fill-opacity:1;fill-rule:nonzero;stroke:#cbfd02;stroke-width:0.1;stroke-linejoin:round;stroke-miterlimit:4;stroke-dasharray:none;stroke-opacity:1"
       d="m 37.133839,43.916147 c -0.250522,-0.04514 -0.673956,-0.163802 -0.940967,-0.263704 -0.514117,-0.192356 -1.567762,-0.832225 -1.559875,-0.947298 0.0026,-0.03752 0.306051,-0.306868 0.674399,-0.598549 1.557606,-1.233413 2.766913,-2.668281 3.292061,-3.9061 0.699719,-1.649299 0.563359,-3.597233 -0.346153,-4.944875 -0.146424,-0.216959 -0.266225,-0.418105 -0.266225,-0.446991 0,-0.09954 1.282533,0.05072 1.712932,0.200687 0.414843,0.144551 0.444058,0.177646 0.765584,0.867277 0.732643,1.57142 0.99839,2.809211 0.99839,4.650273 0,0.839667 -0.05209,1.555954 -0.151059,2.077127 -0.175993,0.926796 -0.633109,2.476572 -0.813629,2.758472 -0.276424,0.431663 -2.245051,0.755538 -3.365458,0.553681 z"
       id="path131"
       inkscape:connector-curvature="0"
       transform="matrix(0.26458333,0,0,0.26458333,80.173182,46.999997)" />
    <path
       style="display:inline;opacity:1;fill:#55dcfd;fill-opacity:1;fill-rule:nonzero;stroke:#55dcfd;stroke-width:0.1;stroke-linejoin:round;stroke-miterlimit:4;stroke-dasharray:none;stroke-opacity:1"
       d="m 28.737468,51.977105 c -1.283748,-0.994495 -1.916285,-2.00144 -2.17083,-3.455778 -0.06921,-0.395403 -0.07184,-0.500645 -0.02259,-0.903571 0.03065,-0.250823 0.05248,-0.563091 0.04849,-0.69393 -0.01301,-0.427131 -0.02607,-0.404223 0.362264,-0.63522 0.50599,-0.300985 1.115315,-0.560875 2.077115,-0.885935 1.999974,-0.675931 3.634662,-1.443761 4.949141,-2.324664 l 0.383452,-0.256971 0.399819,0.262535 c 1.01049,0.663523 1.782597,1.66579 2.166889,2.812826 0.203335,0.606914 0.276983,1.123486 0.260415,1.826582 l -0.0143,0.606794 -0.260645,0.238743 c -1.476518,1.352446 -3.464551,2.502279 -5.533884,3.200673 -0.685337,0.2313 -1.90007,0.552085 -2.084304,0.550421 -0.08153,-7.38e-4 -0.262393,-0.111154 -0.561034,-0.342505 z"
       id="path140"
       inkscape:connector-curvature="0"
       transform="matrix(0.26458333,0,0,0.26458333,80.173182,46.999997)" />
    <path
       style="display:inline;opacity:1;fill:#fd9855;fill-opacity:1;fill-rule:nonzero;stroke:#fd9855;stroke-width:0.1;stroke-linejoin:round;stroke-miterlimit:4;stroke-dasharray:none;stroke-opacity:1"
       d="m 37.323881,47.898117 c 0.01625,-0.300599 0.03632,-0.359194 0.237882,-0.694562 0.313104,-0.520944 0.862328,-1.277711 1.337879,-1.843441 0.52941,-0.629803 1.312631,-1.428737 1.335907,-1.362708 0.01,0.02833 -0.0551,0.197371 -0.144628,0.375651 -0.613394,1.221428 -1.485632,2.471224 -2.413888,3.458768 l -0.370896,0.394585 z"
       id="path142"
       inkscape:connector-curvature="0"
       transform="matrix(0.26458333,0,0,0.26458333,80.173182,46.999997)" />
    <path
       style="display:inline;opacity:1;fill:#fdcb02;fill-opacity:1;fill-rule:nonzero;stroke:#fdcb02;stroke-width:0.1;stroke-linejoin:round;stroke-miterlimit:4;stroke-dasharray:none;stroke-opacity:1"
       d="m 24.648286,49.653514 c 0,-0.57048 0.265846,-1.343342 0.663974,-1.930292 0.163962,-0.241725 0.893161,-0.970305 1.061064,-1.060164 0.08371,-0.0448 0.08692,-0.03037 0.08692,0.389907 0,1.180369 -0.653687,2.292135 -1.645093,2.797913 l -0.166868,0.08513 z"
       id="path144"
       inkscape:connector-curvature="0"
       transform="matrix(0.26458333,0,0,0.26458333,80.173182,46.999997)" />
    <path
       style="display:inline;opacity:1;fill:#cbfd02;fill-opacity:1;fill-rule:nonzero;stroke:#cbfd02;stroke-width:0.1;stroke-linejoin:round;stroke-miterlimit:4;stroke-dasharray:none;stroke-opacity:1"
       d="m 26.671568,52.561425 c -0.864575,-0.209602 -1.600504,-0.961658 -1.895972,-1.937521 -0.04418,-0.145903 -0.07206,-0.273537 -0.06197,-0.28363 0.01009,-0.01009 0.226911,0.02363 0.481818,0.07493 0.950128,0.191227 1.941222,0.589726 2.712571,1.090669 0.396102,0.257244 1.115403,0.814908 1.115461,0.864801 6.2e-5,0.05251 -1.556001,0.262017 -1.899158,0.255701 -0.110018,-0.002 -0.313756,-0.03125 -0.45275,-0.06495 z"
       id="path146"
       inkscape:connector-curvature="0"
       transform="matrix(0.26458333,0,0,0.26458333,80.173182,46.999997)" />
    <path
       style="display:inline;opacity:1;fill:#cbfd02;fill-opacity:1;fill-rule:nonzero;stroke:#cbfd02;stroke-width:0.1;stroke-linejoin:round;stroke-miterlimit:4;stroke-dasharray:none;stroke-opacity:1"
       d="M 24.609017,36.95965 C 24.424408,36.910003 24.30747,36.836296 24.088832,36.631771 23.93371,36.486661 23.749455,36.338286 23.679378,36.302047 23.239491,36.074573 23.088563,35.03003 23.3996,34.365759 c 0.262438,-0.560479 0.796336,-0.960031 1.394583,-1.043661 0.839955,-0.117418 1.597239,0.299552 1.963175,1.080948 0.110861,0.236723 0.122734,0.309107 0.122734,0.748213 0,0.454768 -0.0091,0.505308 -0.140758,0.783268 -0.393501,0.830662 -1.2754,1.255038 -2.130317,1.025123 z"
       id="path154"
       inkscape:connector-curvature="0"
       transform="matrix(0.26458333,0,0,0.26458333,80.173182,46.999997)" />
    <path
       style="display:inline;opacity:1;fill:#fd9855;fill-opacity:1;fill-rule:nonzero;stroke:#fd9855;stroke-width:0.1;stroke-linejoin:round;stroke-miterlimit:4;stroke-dasharray:none;stroke-opacity:1"
       d="m 26.248334,33.4005 c -0.558451,-0.09295 -1.175126,-0.420289 -1.577951,-0.837587 l -0.220971,-0.228911 0.309414,0.02407 c 0.54324,0.04226 1.109304,0.313804 1.506866,0.722866 0.19895,0.204705 0.315417,0.373219 0.251353,0.363681 -0.01909,-0.0028 -0.140005,-0.02269 -0.268711,-0.04412 z"
       id="path156"
       inkscape:connector-curvature="0"
       transform="matrix(0.26458333,0,0,0.26458333,80.173182,46.999997)" />
    <path
       style="display:inline;opacity:1;fill:#55dcfd;fill-opacity:1;fill-rule:nonzero;stroke:#55dcfd;stroke-width:0.1;stroke-linejoin:round;stroke-miterlimit:4;stroke-dasharray:none;stroke-opacity:1"
       d="m 25.157988,38.568971 c 0.216707,-0.701211 0.423579,-1.057638 0.882415,-1.520346 0.330846,-0.333639 0.855907,-0.70731 0.947753,-0.674489 0.02241,0.008 -0.01405,0.154999 -0.08102,0.326647 -0.274975,0.704783 -0.9657,1.512407 -1.597777,1.868188 l -0.183253,0.103148 z"
       id="path158"
       inkscape:connector-curvature="0"
       transform="matrix(0.26458333,0,0,0.26458333,80.173182,46.999997)" />
    <path
       style="display:inline;opacity:1;fill:#fdcb02;fill-opacity:1;fill-rule:nonzero;stroke:#fdcb02;stroke-width:0.1;stroke-linejoin:round;stroke-miterlimit:4;stroke-dasharray:none;stroke-opacity:1"
       d="m 19.394452,40.507969 c -0.07359,-0.128618 -0.188159,-0.398853 -0.254601,-0.60052 -0.116058,-0.352262 -0.118742,-0.380931 -0.06832,-0.729664 0.02887,-0.199648 0.05248,-0.536374 0.05248,-0.74828 0,-0.303867 0.02224,-0.440009 0.10523,-0.644257 0.464683,-1.143591 1.713424,-1.923639 2.950307,-1.84296 1.325322,0.08645 2.458206,1.029236 2.756412,2.293892 0.107829,0.457292 0.09963,0.486731 -0.166143,0.596261 -0.421851,0.173854 -0.752416,0.275869 -1.690427,0.521678 -1.772667,0.464533 -2.649525,0.792862 -3.280352,1.228288 -0.127025,0.08768 -0.239918,0.159415 -0.250873,0.159415 -0.01096,0 -0.08013,-0.105233 -0.153716,-0.233853 z"
       id="path160"
       inkscape:connector-curvature="0"
       transform="matrix(0.26458333,0,0,0.26458333,80.173182,46.999997)" />
    <path
       style="display:inline;opacity:1;fill:#55dcfd;fill-opacity:1;fill-rule:nonzero;stroke:#55dcfd;stroke-width:0.1;stroke-linejoin:round;stroke-miterlimit:4;stroke-dasharray:none;stroke-opacity:1"
       d="m 18.627615,36.130525 c -0.139332,-0.03134 -0.264326,-0.06798 -0.277765,-0.08142 -0.03141,-0.03141 0.527904,-0.554822 1.149815,-1.076012 0.922874,-0.773412 2.083232,-1.562509 3.083804,-2.097127 0.414712,-0.221587 1.042185,-0.463549 1.08669,-0.419044 0.05676,0.05676 -0.183834,0.899406 -0.367491,1.287108 -0.254993,0.538297 -0.505012,0.887061 -0.913891,1.274836 -0.534426,0.506843 -1.10607,0.835772 -1.809328,1.041105 -0.411722,0.120212 -1.548394,0.161298 -1.951834,0.07055 z"
       id="path162"
       inkscape:connector-curvature="0"
       transform="matrix(0.26458333,0,0,0.26458333,80.173182,46.999997)" />
    <path
       style="display:inline;opacity:1;fill:#cbfd02;fill-opacity:1;fill-rule:nonzero;stroke:#cbfd02;stroke-width:0.1;stroke-linejoin:round;stroke-miterlimit:4;stroke-dasharray:none;stroke-opacity:1"
       d="m 15.464907,41.532221 c -0.249121,-0.04147 -0.803194,-0.25931 -0.804015,-0.316114 -7.03e-4,-0.04869 0.417062,-0.875524 0.652733,-1.291877 0.333956,-0.58999 1.08319,-1.693236 1.521056,-2.239753 0.463705,-0.578767 1.171163,-1.362072 1.230183,-1.362072 0.07726,0 0.485745,0.555663 0.637952,0.867803 0.210331,0.431341 0.300924,0.835322 0.300924,1.341906 0,0.507996 -0.09064,0.910663 -0.303045,1.346254 -0.586226,1.202216 -1.903666,1.875577 -3.235788,1.653853 z"
       id="path164"
       inkscape:connector-curvature="0"
       transform="matrix(0.26458333,0,0,0.26458333,80.173182,46.999997)" />
    <path
       style="display:inline;opacity:1;fill:#fd9855;fill-opacity:1;fill-rule:nonzero;stroke:#fd9855;stroke-width:0.1;stroke-linejoin:round;stroke-miterlimit:4;stroke-dasharray:none;stroke-opacity:1"
       d="m 16.912934,43.588226 c -0.08023,-0.241094 -0.09396,-0.36504 -0.07956,-0.718156 0.01493,-0.36609 0.03742,-0.469424 0.15811,-0.726744 0.258102,-0.550273 0.748592,-0.964871 1.31648,-1.112787 0.262,-0.06824 0.776671,-0.09239 0.830113,-0.03895 0.01584,0.01584 -0.140085,0.186805 -0.346497,0.379926 -0.642355,0.600992 -1.255932,1.441907 -1.596252,2.187684 -0.08042,0.176224 -0.155036,0.320408 -0.165821,0.320408 -0.01079,0 -0.06324,-0.131123 -0.116576,-0.291383 z"
       id="path166"
       inkscape:connector-curvature="0"
       transform="matrix(0.26458333,0,0,0.26458333,80.173182,46.999997)" />
    <path
       style="display:inline;opacity:1;fill:#55dcfd;fill-opacity:1;fill-rule:nonzero;stroke:#55dcfd;stroke-width:0.1;stroke-linejoin:round;stroke-miterlimit:4;stroke-dasharray:none;stroke-opacity:1"
       d="m 13.222747,48.977221 c -0.110377,-2.190915 0.270091,-4.775824 0.98123,-6.666505 0.252995,-0.672628 0.379111,-0.950175 0.431757,-0.950175 0.02775,0 0.218672,0.103153 0.424264,0.229229 0.748878,0.45924 1.451076,1.303552 1.768326,2.126208 l 0.13319,0.345372 -0.151238,0.384217 c -0.436313,1.10845 -0.68257,2.175036 -0.774686,3.355307 l -0.03682,0.471818 -0.280193,0.263362 c -0.548595,0.515641 -1.268572,0.889083 -1.919958,0.995855 -0.170148,0.02789 -0.361887,0.06212 -0.426087,0.07606 l -0.116728,0.02535 z"
       id="path168"
       inkscape:connector-curvature="0"
       transform="matrix(0.26458333,0,0,0.26458333,80.173182,46.999997)" />
    <path
       style="display:inline;opacity:1;fill:#fdcb02;fill-opacity:1;fill-rule:nonzero;stroke:#fdcb02;stroke-width:0.1;stroke-linejoin:round;stroke-miterlimit:4;stroke-dasharray:none;stroke-opacity:1"
       d="m 14.53129,55.311486 c -0.127724,-0.341065 -0.508345,-1.54534 -0.617017,-1.952226 -0.27743,-1.038749 -0.485692,-2.128454 -0.585618,-3.064184 -0.04554,-0.426416 -0.04414,-0.506726 0.0094,-0.539948 0.223761,-0.138939 1.118834,-0.17399 1.55525,-0.0609 0.338023,0.08759 0.799904,0.319978 1.017534,0.511954 0.164905,0.145466 0.169008,0.156888 0.251516,0.700305 0.11275,0.742595 0.235111,1.306994 0.453912,2.093699 l 0.182834,0.657387 -0.149356,0.292787 c -0.216349,0.424115 -0.768304,0.962806 -1.198542,1.169742 -0.180434,0.08679 -0.453125,0.186967 -0.605979,0.222626 -0.273216,0.06374 -0.278526,0.06321 -0.313894,-0.03124 z"
       id="path170"
       inkscape:connector-curvature="0"
       transform="matrix(0.26458333,0,0,0.26458333,80.173182,46.999997)" />
    <path
       style="display:inline;opacity:1;fill:#fd9855;fill-opacity:1;fill-rule:nonzero;stroke:#fd9855;stroke-width:0.1;stroke-linejoin:round;stroke-miterlimit:4;stroke-dasharray:none;stroke-opacity:1"
       d="M 22.718717,66.38992 C 22.586969,66.36151 21.570724,65.4956 20.829483,64.78016 18.806558,62.827648 17.113838,60.603998 15.874892,58.271537 l -0.254651,-0.479412 0.02688,-0.348557 c 0.03331,-0.431892 0.215836,-1.257575 0.389219,-1.760639 0.13737,-0.398576 0.643331,-1.454902 0.781635,-1.631871 l 0.08104,-0.103696 0.212193,0.567735 c 0.638692,1.708859 1.48733,3.313456 2.774977,5.246902 1.33322,2.001875 2.713882,3.680279 4.501248,5.471951 0.766246,0.768091 0.983767,1.009976 0.928995,1.033046 -0.06397,0.02694 -0.898787,0.07756 -2.082354,0.126247 -0.230915,0.0095 -0.462825,0.008 -0.515356,-0.0033 z"
       id="path172"
       inkscape:connector-curvature="0"
       transform="matrix(0.26458333,0,0,0.26458333,80.173182,46.999997)" />
    <path
       style="display:inline;opacity:1;fill:#55dcfd;fill-opacity:1;fill-rule:nonzero;stroke:#55dcfd;stroke-width:0.1;stroke-linejoin:round;stroke-miterlimit:4;stroke-dasharray:none;stroke-opacity:1"
       d="m 26.924286,69.195466 c -1.217847,-0.655786 -2.44059,-1.425409 -3.408869,-2.145621 -0.251967,-0.187414 -0.458121,-0.353766 -0.458121,-0.36967 0,-0.0438 0.466557,-0.164977 0.839689,-0.218096 0.607867,-0.08653 1.298895,0.04512 1.919946,0.365795 0.539044,0.27833 1.087451,0.842833 1.36273,1.402726 0.211284,0.429733 0.35644,0.932281 0.332552,1.151337 l -0.0134,0.122899 z"
       id="path174"
       inkscape:connector-curvature="0"
       transform="matrix(0.26458333,0,0,0.26458333,80.173182,46.999997)" />
    <path
       style="display:inline;opacity:1;fill:#cbfd02;fill-opacity:1;fill-rule:nonzero;stroke:#cbfd02;stroke-width:0.1;stroke-linejoin:round;stroke-miterlimit:4;stroke-dasharray:none;stroke-opacity:1"
       d="m 31.781486,71.191108 c -0.79831,-0.244263 -1.582209,-0.518173 -2.27184,-0.793826 -0.642496,-0.256812 -1.644769,-0.710221 -1.717852,-0.777123 -0.05054,-0.04626 -0.05196,-0.153114 -0.0086,-0.645163 0.0286,-0.324344 0.0658,-0.603024 0.08267,-0.61929 0.01687,-0.01627 0.299143,0.169558 0.627284,0.41294 1.10185,0.817239 3.125032,2.124816 3.878039,2.506366 0.174608,0.08847 0.233619,0.140223 0.15468,0.135647 -0.01823,-0.0011 -0.353215,-0.09985 -0.744412,-0.219551 z"
       id="path176"
       inkscape:connector-curvature="0"
       transform="matrix(0.26458333,0,0,0.26458333,80.173182,46.999997)" />
    <path
       style="opacity:1;fill:#fd9855;fill-opacity:1;fill-rule:nonzero;stroke:#fd9855;stroke-width:0.1;stroke-linejoin:round;stroke-miterlimit:4;stroke-dasharray:none;stroke-opacity:1"
       d="m 35.059835,30.719195 c -0.588543,-0.227797 -1.406395,-0.425952 -2.189954,-0.530597 -0.307389,-0.04105 -0.638193,-0.05461 -1.359375,-0.05571 -0.524219,-7.99e-4 -1.030469,0.0086 -1.125,0.02083 l -0.171875,0.02228 -0.08119,-0.116034 c -0.04465,-0.06382 -0.104933,-0.15302 -0.133952,-0.198225 l -0.05276,-0.08219 0.430827,-0.08195 c 0.991517,-0.188605 1.371162,-0.221256 2.555827,-0.219814 1.178721,0.0014 1.428366,0.02287 2.157314,0.185207 0.52503,0.116926 1.146607,0.321635 1.119682,0.368753 -0.142836,0.249963 -0.707332,0.805677 -0.811712,0.799085 -0.03247,-0.0021 -0.184492,-0.05229 -0.33783,-0.111636 z"
       id="path200"
       inkscape:connector-curvature="0"
       transform="matrix(0.26458333,0,0,0.26458333,80.173182,46.999997)" />
    <path
       style="opacity:1;fill:#55dcfd;fill-opacity:1;fill-rule:nonzero;stroke:#55dcfd;stroke-width:0.1;stroke-linejoin:round;stroke-miterlimit:4;stroke-dasharray:none;stroke-opacity:1"
       d="m 25.40113,31.379404 c 0.791115,-0.386531 2.167592,-0.928459 3.046439,-1.199403 0.578706,-0.178412 1.278081,-0.359464 1.300799,-0.336746 0.0082,0.0082 0.01785,0.09711 0.02137,0.197497 l 0.0064,0.18252 -0.171875,0.02605 c -1.254852,0.190187 -2.703434,0.588695 -3.989652,1.097563 -0.243527,0.09635 -0.454464,0.173997 -0.46875,0.172556 -0.01429,-0.0014 0.100589,-0.06446 0.255276,-0.140036 z"
       id="path202"
       inkscape:connector-curvature="0"
       transform="matrix(0.26458333,0,0,0.26458333,80.173182,46.999997)" />
    <path
       style="opacity:1;fill:#fdcb02;fill-opacity:1;fill-rule:nonzero;stroke:#fdcb02;stroke-width:0.1;stroke-linejoin:round;stroke-miterlimit:4;stroke-dasharray:none;stroke-opacity:1"
       d="m 37.833877,32.542429 c -0.100155,-0.02778 -0.214459,-0.117973 -0.501086,-0.395369 -0.204233,-0.197657 -0.479496,-0.436719 -0.611696,-0.53125 -0.253526,-0.181287 -0.315931,-0.280908 -0.39759,-0.634694 -0.03414,-0.147902 -0.04105,-0.632974 -0.01157,-0.811387 0.02433,-0.147205 0.0089,-0.150886 0.620442,0.148085 0.537539,0.262794 1.172505,0.675821 1.625,1.057016 0.365472,0.307883 0.867535,0.825369 0.850873,0.87701 -0.01943,0.06022 -0.399553,0.234371 -0.621986,0.284962 -0.243561,0.0554 -0.761939,0.05846 -0.952391,0.0056 z"
       id="path204"
       inkscape:connector-curvature="0"
       transform="matrix(0.26458333,0,0,0.26458333,80.173182,46.999997)" />
  </g>
  <g
     style="display:none"
     transform="translate(-80.040683,-46.920117)"
     inkscape:label="Copie de Calque 2"
     id="g1643"
     inkscape:groupmode="layer">
    <path
       transform="translate(2.2916667e-7,1.0416667e-6)"
       sodipodi:nodetypes="sssccsss"
       inkscape:connector-curvature="0"
       id="path1635"
       d="m 96.215741,50.596357 c 0.275237,0.561183 0.339932,1.638831 -0.09673,2.188008 -0.328642,0.41332 -1.194168,1.219384 -1.325962,1.379908 -0.652394,0.794622 -0.783567,1.219632 -1.219388,2.082811 0.821224,-2.622674 1.453859,-2.420252 1.911025,-3.510219 0.29076,-0.769373 0.512188,-1.811987 -1.112692,-2.391834 -1.032966,-0.368617 -0.294439,-1.423748 0.548024,-1.00718 0.550651,0.272278 0.977712,0.610096 1.295727,1.258506 z"
       style="display:inline;fill:#ffe6d5;fill-opacity:0.44701987;fill-rule:evenodd;stroke:none;stroke-width:0.26458335px;stroke-linecap:butt;stroke-linejoin:miter;stroke-opacity:1" />
    <path
       sodipodi:nodetypes="cscsszzc"
       style="display:inline;fill:#ffe6d5;fill-opacity:0.44701987;fill-rule:evenodd;stroke:none;stroke-width:0.26458329px;stroke-linecap:butt;stroke-linejoin:miter;stroke-opacity:1"
       d="m 91.944854,52.448526 c 0.346626,0.321819 0.544438,0.590847 0.790146,1.026083 0.445439,0.789032 0.540537,1.328677 0.74207,2.415265 0,0 -0.386751,-1.432797 -0.916382,-2.068068 -0.425123,-0.509918 -0.883425,-1.006703 -1.512603,-1.057296 -0.594754,-0.04782 -0.852381,-0.161462 -0.840805,-0.479181 0.01154,-0.317719 0.177595,-0.498524 0.545776,-0.442688 0.368181,0.05584 0.866835,0.310615 1.191798,0.605885 z"
       id="path1639"
       inkscape:connector-curvature="0"
       transform="translate(2.2916667e-7,1.0416667e-6)" />
    <g
       id="g125"
       transform="rotate(-29.642491,88.284664,59.752549)">
      <path
         style="display:inline;fill:#ffe6d5;fill-opacity:0.44701987;fill-rule:evenodd;stroke:none;stroke-width:0.26458329px;stroke-linecap:butt;stroke-linejoin:miter;stroke-opacity:1"
         d="m 88.670325,54.636939 c -1.380488,-0.0076 -2.793935,0.552084 -3.66363,1.649993 -1.159459,1.432943 -1.376941,3.440707 -0.925999,5.186044 0.327513,1.286387 1.019652,2.478331 1.980132,3.395276 -0.96397,-1.527554 -1.501737,-3.337484 -1.486415,-5.146254 0.01727,-1.203005 0.396012,-2.516535 1.417998,-3.246803 0.449366,-0.360947 1.050128,-0.502759 1.61116,-0.361518 0.452052,0.0878 0.933926,0.330901 1.383991,0.09724 0.543605,-0.209552 0.79742,-1.061901 0.266192,-1.422358 -0.170268,-0.116012 -0.380808,-0.153879 -0.583429,-0.15162 z"
         id="path1637"
         inkscape:connector-curvature="0"
         transform="translate(2.2916667e-7,1.0416667e-6)" />
      <path
         transform="translate(2.2916667e-7,1.0416667e-6)"
         style="display:inline;fill:#ffe6d5;fill-opacity:0.44701987;fill-rule:evenodd;stroke:none;stroke-width:0.26458329px;stroke-linecap:butt;stroke-linejoin:miter;stroke-opacity:1"
         d="m 87.276904,59.832946 c 1.123208,0.494938 2.474594,0.543211 3.576252,-0.03684 0.98612,-0.505502 1.791305,-1.494343 1.850338,-2.629974 0.04707,-0.738432 -0.351549,-1.461891 -0.969407,-1.857658 -0.751435,-0.499389 -1.675856,-0.643684 -2.560961,-0.671534 0.956392,0.06853 1.975839,0.3363 2.640661,1.071205 0.437406,0.468942 0.610082,1.220071 0.269774,1.791233 -0.294989,0.528909 -0.895408,0.771418 -1.46342,0.875488 -0.68503,0.159047 -1.398012,0.122474 -2.082606,-0.01898 -0.481493,-0.09478 -1.067398,-0.112633 -1.426665,0.281132 -0.332736,0.338945 -0.314531,0.997055 0.166028,1.195914 z"
         id="path1641"
         inkscape:connector-curvature="0" />
    </g>
  </g>
</svg>
