<?xml version="1.0" encoding="UTF-8" standalone="no"?>
<!-- Created with Inkscape (http://www.inkscape.org/) -->

<svg
   xmlns:dc="http://purl.org/dc/elements/1.1/"
   xmlns:cc="http://creativecommons.org/ns#"
   xmlns:rdf="http://www.w3.org/1999/02/22-rdf-syntax-ns#"
   xmlns:svg="http://www.w3.org/2000/svg"
   xmlns="http://www.w3.org/2000/svg"
   xmlns:xlink="http://www.w3.org/1999/xlink"
   xmlns:sodipodi="http://sodipodi.sourceforge.net/DTD/sodipodi-0.dtd"
   xmlns:inkscape="http://www.inkscape.org/namespaces/inkscape"
   version="1.1"
   id="svg2"
   xml:space="preserve"
   width="485.25363"
   height="177.49199"
   viewBox="0 0 485.25362 177.49199"
   sodipodi:docname="1-ESEO-BASELINE-CMYK.svg"
   inkscape:version="0.92.3 (2405546, 2018-03-11)"><metadata
     id="metadata8"><rdf:RDF><cc:Work
         rdf:about=""><dc:format>image/svg+xml</dc:format><dc:type
           rdf:resource="http://purl.org/dc/dcmitype/StillImage" /><dc:title></dc:title></cc:Work></rdf:RDF></metadata><defs
     id="defs6"><linearGradient
       inkscape:collect="always"
       id="linearGradient945"><stop
         style="stop-color:#8d1650;stop-opacity:1;"
         offset="0"
         id="stop941" /><stop
         style="stop-color:#f0402b;stop-opacity:1"
         offset="1"
         id="stop943" /></linearGradient><linearGradient
       inkscape:collect="always"
       id="linearGradient913"><stop
         style="stop-color:#3975c4;stop-opacity:1"
         offset="0"
         id="stop909" /><stop
         style="stop-color:#4dafe6;stop-opacity:1"
         offset="1"
         id="stop911" /></linearGradient><linearGradient
       inkscape:collect="always"
       xlink:href="#linearGradient913"
       id="linearGradient915"
       x1="499.87299"
       y1="327.40701"
       x2="591.97699"
       y2="327.40701"
       gradientUnits="userSpaceOnUse" /><linearGradient
       inkscape:collect="always"
       xlink:href="#linearGradient913"
       id="linearGradient923"
       x1="407.06833"
       y1="327.64084"
       x2="497.54401"
       y2="327.64084"
       gradientUnits="userSpaceOnUse" /><linearGradient
       inkscape:collect="always"
       xlink:href="#linearGradient913"
       id="linearGradient931"
       x1="331.80701"
       y1="327.41101"
       x2="405.44501"
       y2="327.41101"
       gradientUnits="userSpaceOnUse" /><linearGradient
       inkscape:collect="always"
       xlink:href="#linearGradient945"
       id="linearGradient947"
       x1="243.03676"
       y1="327.72589"
       x2="334.06317"
       y2="327.72589"
       gradientUnits="userSpaceOnUse" /></defs><sodipodi:namedview
     pagecolor="#ffffff"
     bordercolor="#666666"
     borderopacity="1"
     objecttolerance="10"
     gridtolerance="10"
     guidetolerance="10"
     inkscape:pageopacity="0"
     inkscape:pageshadow="2"
     inkscape:window-width="1920"
     inkscape:window-height="1017"
     id="namedview4"
     showgrid="false"
     inkscape:zoom="2.3787284"
     inkscape:cx="210.56355"
     inkscape:cy="132.72009"
     inkscape:window-x="1920"
     inkscape:window-y="30"
     inkscape:window-maximized="1"
     inkscape:current-layer="g10"
     fit-margin-top="10"
     fit-margin-left="10"
     fit-margin-right="10"
     fit-margin-bottom="10" /><g
     id="g10"
     inkscape:groupmode="layer"
     inkscape:label="1-ESEO-BASELINE-CMYK"
     transform="matrix(1.3333333,0,0,-1.3333333,-314.04901,507.49199)"><path
       inkscape:connector-curvature="0"
       id="path64"
       style="fill:#968c86;fill-opacity:1;fill-rule:nonzero;stroke:none"
       d="m 576.3555,255.332 v 17.974 h 13.283 v -1.611 h -11.451 v -6.18 h 9.311 v -1.611 h -9.311 v -6.938 h 11.813 v -1.634 z m -1.986,2.983 c -0.448,-0.663 -1.057,-1.23 -1.831,-1.705 -0.809,-0.506 -1.759,-0.899 -2.851,-1.183 -1.092,-0.284 -2.299,-0.427 -3.624,-0.427 -1.101,0 -2.094,0.067 -2.979,0.201 -0.885,0.135 -1.694,0.34 -2.424,0.616 -0.732,0.276 -1.389,0.616 -1.973,1.018 -0.585,0.403 -1.127,0.864 -1.625,1.386 l 1.443,1.089 c 0.723,-0.836 1.694,-1.5 2.915,-1.989 1.221,-0.49 2.778,-0.734 4.668,-0.734 1.188,0 2.232,0.126 3.135,0.379 0.903,0.253 1.681,0.576 2.334,0.97 0.517,0.317 0.92,0.691 1.212,1.125 0.293,0.435 0.44,0.896 0.44,1.386 0,0.647 -0.173,1.156 -0.516,1.528 -0.345,0.37 -0.714,0.658 -1.109,0.864 -0.224,0.11 -0.469,0.213 -0.736,0.307 -0.266,0.095 -0.615,0.203 -1.045,0.32 -0.429,0.119 -0.967,0.249 -1.612,0.39 -0.645,0.143 -1.449,0.309 -2.411,0.498 -0.997,0.205 -1.815,0.379 -2.45,0.522 -0.637,0.142 -1.165,0.268 -1.587,0.378 -0.422,0.11 -0.765,0.217 -1.032,0.32 -0.267,0.103 -0.519,0.209 -0.76,0.32 -0.276,0.142 -0.541,0.311 -0.8,0.509 -0.259,0.197 -0.486,0.434 -0.684,0.71 -0.198,0.277 -0.356,0.592 -0.477,0.948 -0.12,0.355 -0.18,0.746 -0.18,1.172 0,0.616 0.192,1.227 0.579,1.835 0.388,0.608 1.002,1.117 1.845,1.528 0.774,0.362 1.655,0.627 2.644,0.794 0.989,0.165 2.093,0.248 3.314,0.248 1.084,0 2.042,-0.068 2.876,-0.202 0.835,-0.134 1.574,-0.335 2.219,-0.604 0.644,-0.269 1.203,-0.611 1.676,-1.03 0.473,-0.419 0.89,-0.912 1.251,-1.48 l -1.625,-0.782 c -0.241,0.396 -0.538,0.75 -0.889,1.065 -0.354,0.317 -0.779,0.581 -1.278,0.794 -0.498,0.213 -1.095,0.375 -1.792,0.486 -0.697,0.11 -1.508,0.166 -2.438,0.166 -1.049,0 -2.021,-0.075 -2.914,-0.225 -0.895,-0.15 -1.617,-0.359 -2.167,-0.628 -0.981,-0.505 -1.47,-1.184 -1.47,-2.037 0,-0.426 0.124,-0.801 0.374,-1.124 0.249,-0.323 0.58,-0.58 0.993,-0.769 0.241,-0.112 0.503,-0.209 0.786,-0.297 0.285,-0.087 0.641,-0.186 1.071,-0.296 0.429,-0.111 0.954,-0.229 1.573,-0.355 0.619,-0.127 1.393,-0.284 2.322,-0.473 0.791,-0.159 1.487,-0.305 2.089,-0.439 0.602,-0.134 1.144,-0.264 1.625,-0.39 0.482,-0.127 0.906,-0.265 1.277,-0.415 0.37,-0.15 0.717,-0.329 1.044,-0.533 0.275,-0.158 0.546,-0.351 0.813,-0.58 0.267,-0.229 0.507,-0.49 0.723,-0.782 0.213,-0.292 0.386,-0.623 0.515,-0.994 0.129,-0.371 0.194,-0.778 0.194,-1.22 0,-0.789 -0.225,-1.516 -0.671,-2.179 m -20.222,-2.983 c -3.198,3.631 -5.898,6.693 -8.099,9.188 -2.201,2.495 -3.972,4.507 -5.314,6.039 0.017,-1.532 0.03,-3.548 0.04,-6.05 0.008,-2.503 0.013,-5.562 0.013,-9.177 h -1.858 v 17.974 h 1.651 c 3.199,-3.632 5.902,-6.702 8.112,-9.212 2.209,-2.51 3.976,-4.516 5.301,-6.016 -0.018,1.532 -0.032,3.545 -0.039,6.04 -0.009,2.494 -0.013,5.556 -0.013,9.188 h 1.857 v -17.974 z m -30.668,0 v 17.974 h 13.283 v -1.611 h -11.452 v -6.18 h 9.312 v -1.611 h -9.312 v -6.938 h 11.814 v -1.634 z m -1.471,2.983 c -0.447,-0.663 -1.056,-1.23 -1.83,-1.705 -0.809,-0.506 -1.76,-0.899 -2.85,-1.183 -1.093,-0.284 -2.3,-0.427 -3.624,-0.427 -1.102,0 -2.094,0.067 -2.98,0.201 -0.886,0.135 -1.693,0.34 -2.425,0.616 -0.731,0.276 -1.388,0.616 -1.972,1.018 -0.585,0.403 -1.126,0.864 -1.625,1.386 l 1.444,1.089 c 0.722,-0.836 1.694,-1.5 2.914,-1.989 1.222,-0.49 2.777,-0.734 4.669,-0.734 1.187,0 2.231,0.126 3.134,0.379 0.902,0.253 1.68,0.576 2.335,0.97 0.515,0.317 0.919,0.691 1.212,1.125 0.292,0.435 0.438,0.896 0.438,1.386 0,0.647 -0.173,1.156 -0.515,1.528 -0.345,0.37 -0.714,0.658 -1.11,0.864 -0.223,0.11 -0.469,0.213 -0.735,0.307 -0.267,0.095 -0.615,0.203 -1.044,0.32 -0.431,0.119 -0.968,0.249 -1.612,0.39 -0.646,0.143 -1.45,0.309 -2.413,0.498 -0.997,0.205 -1.814,0.379 -2.45,0.522 -0.636,0.142 -1.165,0.268 -1.586,0.378 -0.422,0.11 -0.765,0.217 -1.032,0.32 -0.267,0.103 -0.519,0.209 -0.761,0.32 -0.274,0.142 -0.541,0.311 -0.798,0.509 -0.259,0.197 -0.488,0.434 -0.685,0.71 -0.198,0.277 -0.356,0.592 -0.478,0.948 -0.12,0.355 -0.179,0.746 -0.179,1.172 0,0.616 0.193,1.227 0.58,1.835 0.387,0.608 1.001,1.117 1.845,1.528 0.773,0.362 1.654,0.627 2.643,0.794 0.988,0.165 2.093,0.248 3.315,0.248 1.083,0 2.041,-0.068 2.876,-0.202 0.833,-0.134 1.573,-0.335 2.217,-0.604 0.646,-0.269 1.204,-0.611 1.677,-1.03 0.473,-0.419 0.89,-0.912 1.251,-1.48 l -1.625,-0.782 c -0.241,0.396 -0.538,0.75 -0.89,1.065 -0.352,0.317 -0.778,0.581 -1.276,0.794 -0.499,0.213 -1.097,0.375 -1.793,0.486 -0.696,0.11 -1.509,0.166 -2.437,0.166 -1.049,0 -2.021,-0.075 -2.916,-0.225 -0.893,-0.15 -1.616,-0.359 -2.166,-0.628 -0.98,-0.505 -1.47,-1.184 -1.47,-2.037 0,-0.426 0.124,-0.801 0.374,-1.124 0.249,-0.323 0.58,-0.58 0.993,-0.769 0.24,-0.112 0.503,-0.209 0.786,-0.297 0.284,-0.087 0.641,-0.186 1.071,-0.296 0.43,-0.111 0.954,-0.229 1.573,-0.355 0.619,-0.127 1.393,-0.284 2.322,-0.473 0.791,-0.159 1.486,-0.305 2.089,-0.439 0.601,-0.134 1.143,-0.264 1.625,-0.39 0.481,-0.127 0.907,-0.265 1.276,-0.415 0.37,-0.15 0.719,-0.329 1.046,-0.533 0.273,-0.158 0.545,-0.351 0.812,-0.58 0.266,-0.229 0.507,-0.49 0.722,-0.782 0.214,-0.292 0.387,-0.623 0.516,-0.994 0.129,-0.371 0.193,-0.778 0.193,-1.22 0,-0.789 -0.223,-1.516 -0.671,-2.179 m -25.173,0 c -0.448,-0.663 -1.057,-1.23 -1.831,-1.705 -0.808,-0.506 -1.759,-0.899 -2.85,-1.183 -1.093,-0.284 -2.3,-0.427 -3.624,-0.427 -1.102,0 -2.095,0.067 -2.979,0.201 -0.886,0.135 -1.694,0.34 -2.425,0.616 -0.731,0.276 -1.389,0.616 -1.973,1.018 -0.585,0.403 -1.126,0.864 -1.625,1.386 l 1.444,1.089 c 0.723,-0.836 1.694,-1.5 2.914,-1.989 1.222,-0.49 2.778,-0.734 4.669,-0.734 1.187,0 2.232,0.126 3.134,0.379 0.902,0.253 1.681,0.576 2.335,0.97 0.516,0.317 0.92,0.691 1.212,1.125 0.293,0.435 0.438,0.896 0.438,1.386 0,0.647 -0.172,1.156 -0.515,1.528 -0.344,0.37 -0.714,0.658 -1.11,0.864 -0.223,0.11 -0.468,0.213 -0.735,0.307 -0.267,0.095 -0.614,0.203 -1.044,0.32 -0.431,0.119 -0.968,0.249 -1.612,0.39 -0.645,0.143 -1.449,0.309 -2.412,0.498 -0.997,0.205 -1.815,0.379 -2.45,0.522 -0.637,0.142 -1.166,0.268 -1.587,0.378 -0.421,0.11 -0.765,0.217 -1.031,0.32 -0.267,0.103 -0.52,0.209 -0.761,0.32 -0.276,0.142 -0.541,0.311 -0.8,0.509 -0.258,0.197 -0.487,0.434 -0.684,0.71 -0.197,0.277 -0.356,0.592 -0.476,0.948 -0.122,0.355 -0.181,0.746 -0.181,1.172 0,0.616 0.193,1.227 0.58,1.835 0.388,0.608 1.002,1.117 1.845,1.528 0.773,0.362 1.654,0.627 2.643,0.794 0.99,0.165 2.093,0.248 3.315,0.248 1.083,0 2.042,-0.068 2.876,-0.202 0.833,-0.134 1.573,-0.335 2.218,-0.604 0.645,-0.269 1.204,-0.611 1.676,-1.03 0.473,-0.419 0.89,-0.912 1.251,-1.48 l -1.625,-0.782 c -0.24,0.396 -0.538,0.75 -0.889,1.065 -0.353,0.317 -0.779,0.581 -1.277,0.794 -0.5,0.213 -1.097,0.375 -1.793,0.486 -0.696,0.11 -1.509,0.166 -2.437,0.166 -1.049,0 -2.021,-0.075 -2.915,-0.225 -0.894,-0.15 -1.617,-0.359 -2.166,-0.628 -0.981,-0.505 -1.471,-1.184 -1.471,-2.037 0,-0.426 0.125,-0.801 0.374,-1.124 0.249,-0.323 0.581,-0.58 0.993,-0.769 0.241,-0.112 0.503,-0.209 0.786,-0.297 0.284,-0.087 0.641,-0.186 1.072,-0.296 0.429,-0.111 0.954,-0.229 1.573,-0.355 0.619,-0.127 1.392,-0.284 2.321,-0.473 0.791,-0.159 1.487,-0.305 2.089,-0.439 0.602,-0.134 1.144,-0.264 1.625,-0.39 0.481,-0.127 0.907,-0.265 1.276,-0.415 0.37,-0.15 0.719,-0.329 1.046,-0.533 0.275,-0.158 0.546,-0.351 0.812,-0.58 0.266,-0.229 0.508,-0.49 0.722,-0.782 0.215,-0.292 0.387,-0.623 0.516,-0.994 0.129,-0.371 0.193,-0.778 0.193,-1.22 0,-0.789 -0.223,-1.516 -0.67,-2.179 m -30.823,-2.983 v 17.974 h 13.283 v -1.611 h -11.452 v -6.18 h 9.312 v -1.611 h -9.312 v -6.938 h 11.814 v -1.634 z m -3.404,0 -8.899,9.307 -3.172,-2.795 v -6.512 h -1.857 v 17.974 h 1.83 v -5.613 -3.623 c 0.775,0.663 1.531,1.325 2.271,1.99 0.739,0.663 1.496,1.334 2.269,2.012 l 5.933,5.234 h 2.605 l -8.615,-7.554 10.085,-10.42 z m -22.44,11.509 c -0.292,0.616 -0.584,1.227 -0.876,1.835 -0.293,0.607 -0.585,1.235 -0.877,1.883 -0.293,-0.616 -0.573,-1.224 -0.839,-1.824 -0.267,-0.6 -0.547,-1.2 -0.839,-1.799 l -1.934,-4.122 h 7.247 z m 5.519,-11.509 -2.862,5.873 h -8.822 l -2.836,-5.873 h -1.96 l 8.639,17.974 h 1.161 l 8.666,-17.974 z m -18.932,0 v 8.976 c 0,2.446 0.009,4.435 0.027,5.966 -1.101,-1.531 -2.541,-3.524 -4.322,-5.979 -1.779,-2.455 -3.95,-5.442 -6.511,-8.963 h -1.239 c -2.563,3.521 -4.729,6.517 -6.5,8.987 -1.771,2.47 -3.207,4.455 -4.307,5.955 0.017,-1.531 0.03,-3.524 0.039,-5.979 0.009,-2.455 0.013,-5.442 0.013,-8.963 h -1.857 v 17.974 h 1.779 c 2.786,-3.852 5.129,-7.085 7.029,-9.698 1.9,-2.613 3.383,-4.661 4.449,-6.145 1.066,1.484 2.545,3.532 4.437,6.145 1.891,2.613 4.239,5.846 7.042,9.698 h 1.753 v -17.974 z m -37.554,0 c -3.198,3.631 -5.898,6.693 -8.099,9.188 -2.201,2.495 -3.972,4.507 -5.313,6.039 0.017,-1.532 0.03,-3.548 0.038,-6.05 0.009,-2.503 0.014,-5.562 0.014,-9.177 h -1.857 v 17.974 h 1.65 c 3.199,-3.632 5.902,-6.702 8.112,-9.212 2.209,-2.51 3.976,-4.516 5.3,-6.016 -0.017,1.532 -0.029,3.545 -0.038,6.04 -0.009,2.494 -0.013,5.556 -0.013,9.188 h 1.857 v -17.974 z m -18.493,8.998 c 0,1.311 -0.245,2.451 -0.735,3.423 -0.491,0.971 -1.144,1.776 -1.96,2.415 -0.817,0.64 -1.763,1.117 -2.838,1.433 -1.075,0.316 -2.196,0.473 -3.366,0.473 -1.169,0 -2.287,-0.157 -3.353,-0.473 -1.066,-0.316 -2.003,-0.793 -2.811,-1.433 -0.809,-0.639 -1.457,-1.444 -1.948,-2.415 -0.49,-0.972 -0.735,-2.112 -0.735,-3.423 0,-1.311 0.245,-2.447 0.735,-3.409 0.491,-0.964 1.144,-1.765 1.961,-2.403 0.816,-0.641 1.758,-1.119 2.824,-1.433 1.065,-0.317 2.184,-0.475 3.353,-0.475 1.169,0 2.287,0.158 3.353,0.475 1.066,0.314 2.008,0.792 2.825,1.433 0.816,0.638 1.465,1.439 1.947,2.403 0.481,0.962 0.722,2.098 0.722,3.409 z m 0.928,-4.12 c -0.602,-1.168 -1.397,-2.139 -2.386,-2.913 -0.989,-0.774 -2.127,-1.35 -3.417,-1.729 -1.29,-0.379 -2.623,-0.568 -3.998,-0.568 -1.376,0 -2.709,0.193 -3.998,0.58 -1.289,0.387 -2.428,0.967 -3.418,1.741 -0.988,0.773 -1.783,1.743 -2.385,2.912 -0.602,1.169 -0.903,2.535 -0.903,4.097 0,1.564 0.301,2.929 0.903,4.098 0.602,1.168 1.397,2.138 2.385,2.913 0.99,0.772 2.129,1.349 3.418,1.728 1.289,0.379 2.622,0.569 3.998,0.569 1.375,0 2.708,-0.19 3.998,-0.569 1.29,-0.379 2.428,-0.956 3.417,-1.728 0.989,-0.775 1.784,-1.745 2.386,-2.913 0.602,-1.169 0.903,-2.542 0.903,-4.12 0,-1.564 -0.301,-2.93 -0.903,-4.098 m -23.807,13.096 h 1.857 v -17.974 h -1.857 z m -8.744,-1.611 v -16.363 h -1.831 v 16.34 h -7.531 v 1.634 h 16.894 v -1.611 z m -11.091,-4.854 c -0.292,0.616 -0.584,1.227 -0.876,1.835 -0.293,0.607 -0.585,1.235 -0.877,1.883 -0.293,-0.616 -0.572,-1.224 -0.839,-1.824 -0.266,-0.6 -0.546,-1.2 -0.839,-1.799 l -1.934,-4.122 h 7.248 z m 5.52,-11.509 -2.863,5.873 h -8.821 l -2.837,-5.873 h -1.961 l 8.641,17.974 h 1.161 l 8.667,-17.974 z m -18.777,0 h -1.341 l -9.054,17.974 h 1.961 l 4.281,-8.525 c 0.602,-1.169 1.187,-2.325 1.754,-3.47 0.568,-1.145 1.143,-2.308 1.728,-3.493 0.585,1.2 1.161,2.368 1.728,3.505 0.568,1.137 1.152,2.289 1.754,3.458 l 4.282,8.525 h 1.96 z m -10.085,8.998 c 0,1.311 -0.245,2.451 -0.735,3.423 -0.49,0.971 -1.144,1.776 -1.96,2.415 -0.817,0.64 -1.763,1.117 -2.837,1.433 -1.075,0.316 -2.197,0.473 -3.367,0.473 -1.169,0 -2.287,-0.157 -3.353,-0.473 -1.066,-0.316 -2.003,-0.793 -2.811,-1.433 -0.808,-0.639 -1.457,-1.444 -1.947,-2.415 -0.49,-0.972 -0.735,-2.112 -0.735,-3.423 0,-1.311 0.245,-2.447 0.735,-3.409 0.49,-0.964 1.143,-1.765 1.96,-2.403 0.816,-0.641 1.758,-1.119 2.824,-1.433 1.066,-0.317 2.184,-0.475 3.353,-0.475 1.17,0 2.287,0.158 3.353,0.475 1.067,0.314 2.008,0.792 2.825,1.433 0.816,0.638 1.466,1.439 1.947,2.403 0.481,0.962 0.722,2.098 0.722,3.409 z m 0.929,-4.12 c -0.602,-1.168 -1.397,-2.139 -2.386,-2.913 -0.989,-0.774 -2.128,-1.35 -3.418,-1.729 -1.289,-0.379 -2.622,-0.568 -3.998,-0.568 -1.376,0 -2.708,0.193 -3.998,0.58 -1.289,0.387 -2.428,0.967 -3.417,1.741 -0.989,0.773 -1.784,1.743 -2.386,2.912 -0.602,1.169 -0.903,2.535 -0.903,4.097 0,1.564 0.301,2.929 0.903,4.098 0.602,1.168 1.397,2.138 2.386,2.913 0.989,0.772 2.128,1.349 3.417,1.728 1.29,0.379 2.622,0.569 3.998,0.569 1.376,0 2.709,-0.19 3.998,-0.569 1.29,-0.379 2.429,-0.956 3.418,-1.728 0.989,-0.775 1.784,-1.745 2.386,-2.913 0.602,-1.169 0.902,-2.542 0.902,-4.12 0,-1.564 -0.3,-2.93 -0.902,-4.098 m -23.601,-4.878 c -3.198,3.631 -5.898,6.693 -8.099,9.188 -2.201,2.495 -3.972,4.507 -5.313,6.039 0.016,-1.532 0.03,-3.548 0.038,-6.05 0.009,-2.503 0.013,-5.562 0.013,-9.177 h -1.857 v 17.974 h 1.651 c 3.198,-3.632 5.902,-6.702 8.112,-9.212 2.209,-2.51 3.976,-4.516 5.3,-6.016 -0.017,1.532 -0.03,3.545 -0.038,6.04 -0.009,2.494 -0.013,5.556 -0.013,9.188 h 1.857 v -17.974 z m -18.623,0 c -3.198,3.631 -5.898,6.693 -8.099,9.188 -2.201,2.495 -3.972,4.507 -5.313,6.039 0.017,-1.532 0.03,-3.548 0.039,-6.05 0.008,-2.503 0.013,-5.562 0.013,-9.177 h -1.857 v 17.974 h 1.65 c 3.199,-3.632 5.902,-6.702 8.112,-9.212 2.209,-2.51 3.976,-4.516 5.301,-6.016 -0.017,1.532 -0.031,3.545 -0.039,6.04 -0.009,2.494 -0.013,5.556 -0.013,9.188 h 1.857 v -17.974 z m -18.622,17.974 h 1.857 v -17.974 h -1.857 z" /><path
       inkscape:connector-curvature="0"
       id="path885"
       d="m 243.043,327.38 c -0.338,-20.056 13.162,-32.109 15.956,-34.433 v 0 c 5.236,-4.357 13.939,-10.245 27.592,-10.602 v 0 c 9.353,-0.244 17.961,3.177 24.799,8.511 v 0 c -5.353,-2.619 -11.504,-3.938 -17.857,-3.938 v 0 c -22.314,0 -40.638,18.773 -39.507,40.546 v 0 c 0.031,0.609 0.034,0.873 0.066,1.384 v 0 c 0.775,12.211 12.055,27.356 29.448,29.023 v 0 c 20.711,1.987 34.227,-12.83 35.073,-23.502 v 0 c 0,0 -1.539,0.168 -4.064,0.27 v 0 c -1.293,0.141 -2.593,0.22 -3.923,0.22 v 0 c -1.346,0 -2.669,-0.086 -3.97,-0.226 v 0 c -14.548,-1.583 -26.522,-11.738 -30.744,-25.318 v 0 c 1.308,1.621 2.911,3.137 4.864,4.491 v 0 c 8.227,5.711 17.7,5.419 26.715,5.126 v 0 c 6.606,-0.214 12.967,-0.429 18.412,1.72 v 0 c 3.236,1.278 5.463,3.667 6.783,6.698 v 0 c 4.585,10.498 -2.272,29.115 -20.669,39.629 v 0 c -7.294,4.171 -15.262,6.14 -23.108,6.14 v 0 c -23.228,0 -45.391,-17.255 -45.866,-45.739"
       style="fill:url(#linearGradient947);fill-opacity:1;stroke:none" /><path
       inkscape:connector-curvature="0"
       id="path873"
       d="m 499.873,327.406 c 0,-26.907 18.752,-45.406 46.135,-45.406 v 0 c 27.216,0 45.969,18.499 45.969,45.406 v 0 c 0,27.077 -18.753,45.408 -45.969,45.408 v 0 c -27.383,0 -46.135,-18.331 -46.135,-45.408 m 13.996,0 c 0,17.941 14.352,32.484 32.056,32.484 v 0 c 17.703,0 32.054,-14.543 32.054,-32.484 v 0 c 0,-17.94 -14.351,-32.483 -32.054,-32.483 v 0 c -17.704,0 -32.056,14.543 -32.056,32.483"
       style="fill:url(#linearGradient915);fill-opacity:1;stroke:none" /><path
       inkscape:connector-curvature="0"
       id="path876"
       d="m 335.463,346.505 c 0,-15.348 12.425,-21.378 27.408,-24.302 v 0 l 11.876,-2.375 c 8.772,-1.645 15.166,-3.472 15.166,-11.695 v 0 c 0,-8.771 -8.039,-13.703 -19.917,-13.703 v 0 c -11.875,0 -21.742,6.212 -28.321,14.8 v 0 l -9.868,-10.232 c 6.945,-8.954 20.648,-17.176 37.277,-17.176 v 0 c 20.829,0 36.361,9.866 36.361,27.591 v 0 c 0,15.166 -11.145,21.013 -25.032,23.936 v 0 l -10.05,2.011 c -12.973,2.74 -19.551,4.933 -19.551,13.155 v 0 c 0,7.674 8.131,10.093 17.814,10.093 v 0 c 9.503,0 17.268,-2.236 23.481,-9.179 v 0 l 9.866,9.867 C 396.31,365.874 384.798,373 368.717,373 v 0 c -16.078,0 -33.254,-7.857 -33.254,-26.495"
       style="fill:url(#linearGradient931);fill-opacity:1;stroke:none" /><path
       inkscape:connector-curvature="0"
       id="path879"
       d="m 442.217,371.627 c -25.777,-5.995 -39.016,-30.19 -34.156,-53.893 v 0 c 2.772,-13.524 10.796,-23.634 22.947,-30.075 v 0 c 12.237,-6.487 24.865,-7.112 37.488,-0.792 v 0 c 1.819,0.911 3.512,2.07 5.435,3.216 v 0 c -0.337,0.118 -0.382,0.149 -0.41,0.14 v 0 c -0.301,-0.101 -0.604,-0.198 -0.898,-0.315 v 0 c -6.722,-2.678 -13.724,-3.603 -20.821,-2.446 v 0 c -14.626,2.384 -25.168,10.388 -31.047,24.04 v 0 c -3.475,8.072 -4.146,16.504 -0.999,24.895 v 0 c 5.714,15.228 21.488,23.967 37.577,20.936 v 0 c 9.564,-1.801 17.123,-6.618 22.224,-15.015 v 0 c 1.457,-2.399 2.434,-4.999 2.686,-8.133 v 0 c -9.05,1.193 -17.724,0.521 -25.731,-4.097 v 0 c -7.974,-4.599 -13.445,-11.245 -16.49,-19.883 v 0 c 0.12,-0.116 0.242,-0.232 0.363,-0.348 v 0 c 0.264,0.381 0.48,0.811 0.8,1.138 v 0 c 3.066,3.113 6.739,5.211 10.904,6.484 v 0 c 5.992,1.831 12.142,1.747 18.303,1.536 v 0 c 5.154,-0.176 10.308,-0.423 15.416,0.592 v 0 c 4.603,0.915 8.31,3.047 10.28,7.53 v 0 c 0.936,2.132 1.391,4.349 1.456,6.623 v 0 1.163 c -0.01,0.371 -0.03,0.744 -0.06,1.118 v 0 c -0.408,5.159 -2.135,9.893 -4.794,14.288 v 0 c -7.933,13.111 -23.083,22.507 -39.999,22.507 v 0 c -3.433,10e-4 -6.94,-0.387 -10.474,-1.209"
       style="fill:url(#linearGradient923);fill-opacity:1;stroke:none" /></g></svg>